<mxfile host="app.diagrams.net" modified="2021-08-19T02:52:49.704Z" agent="5.0 (Macintosh; Intel Mac OS X 10_15_7) AppleWebKit/537.36 (KHTML, like Gecko) Chrome/92.0.4515.131 Safari/537.36" etag="vFJ-1nnJpuhq-Gqak663" version="14.9.6" type="github">
  <diagram id="AWqFxU3pJorOCvqJFJkU" name="Page-1">
    <mxGraphModel dx="1130" dy="589" grid="1" gridSize="10" guides="1" tooltips="1" connect="1" arrows="1" fold="1" page="1" pageScale="1" pageWidth="827" pageHeight="1169" math="0" shadow="0">
      <root>
        <mxCell id="0" />
        <mxCell id="1" parent="0" />
        <mxCell id="H2iFhttYUmXcO81ItlxO-1" value="" style="shape=image;verticalLabelPosition=bottom;labelBackgroundColor=#ffffff;verticalAlign=top;aspect=fixed;imageAspect=0;image=data:image/png,iVBORw0KGgoAAAANSUhEUgAABqwAAADuCAYAAABMFCb8AAAgAElEQVR4Aeydh7vUxPrHf3/J9So2sGFDpdqwgoqgVyyoKNgbioAiCFiwgIKKvXttWECKXVDsglhQrxXL1WvXcw69ze/5TvbNvpudZJNsz37zPOckm0x95zOTZL6Zmf/7xz/+YfhHG5ABMkAGyAAZIANkgAyQATJABsgAGSADZIAMkAEyQAbIABkgA2SADNSLgf+rV8SMl9CTATJABsgAGSADZIAMkAEyQAbIABkgA2SADJABMkAGyAAZIANkgAyAAQpWHGHGEXZkgAyQATJABsgAGSADZIAMkAEyQAbIABkgA2SADJABMkAGyAAZqCsDFKwIYF0BpHJO5ZwMkAEyQAbIABkgA2SADJABMkAGyAAZIANkgAyQATJABsgAGaBgRcGKghUZIANkgAyQATJABsgAGSADZIAMkAEyQAbIABkgA2SADJABMkAG6soABSsCWFcAqZpTNScDZIAMkAEyQAbIABkgA2SADJABMkAGyAAZIANkgAyQATJABihYUbCiYEUGyAAZIANkgAyQATJABsgAGSADZIAMkAEyQAbIABkgA2SADJCBujJAwYoA1hVAquZUzckAGSADZIAMkAEyQAbIABkgA2SADJABMkAGyAAZIANkgAyQAQpWFKwoWJEBMkAGyAAZIANkgAyQgVgM7NBvsul+wXemx+h202MM/tpMj9FtpufodtNzTLvplTvG9Z5yfjTc5H4rP71wPMo7b6/j2IaHc+1eHNafCmuMF0/W4t/rgu/NDodOjlUGfInnSzwZIANkgAyQATJABsgAGSADWWWAghU7J/hiTAbIABkgA2SADJABMkAGSjKw4xE358QpT4CCaNRLBCcISVaYarNCFsQr+9vu8yITBCkrbllBqs2KXJ6YlXfj/w6IVVaksiJYduOHjbP64sl8sVOFDJABMkAGyAAZIANkgAyQgVIMULBi5wRfiskAGSADZIAMkAEyQAbIQCQDnXbYxxOrciOkfEEqNxLKHxGVE6ow0kqEJ4zA8o5zQpOIWL5o5YlY4qbn6A5vdFZutJUdwYV4IWBlPv6/DWxd6iWO1/miTwbIABkgA2SADJABMkAGyEAWGaBgxc4JvhCTATJABsgAGSADZIAMkIFIBroOusubvs+fxi8/ggrTAnpTAmKfH0GlR1Pp8yJAeSOyEI78YXSWiFdtpqcdvZUTqiB62SkDZRrB7MbfddDdkWWRxZdS5omdLWSADJABMkAGyAAZIANkgAyAAQpW7JzgCzEZIANkgAyQATJABsgAGYhkYPfhb+fXl4KopNaa0oKTjLSSkVAyasqud2WFKc+vJ1blBS4ZPZUfueVNFyhhe9dzI7UyHn+34W9FlgVf5PkiTwbIABkgA2SADJABMkAGyEBWGaBgxc4JvhCTATJABsgAGSADZIAMkIFIBrpf+F81xR9GPck0f7mRTpjeb0xHbo0rWY9KRlvl1rXKjb6y4tMouFfuRiG83Cgqf5rB3IgrGVmVG4kF/1mOv/uI/0aWRVZfTJkvdrqQATJABsgAGSADZIAMkAEyQMGKnRN8ISYDZIAMkAEyQAbIABkgA5EM2Gn8rCiVn77PG/2kRlvZ6fxywtMYbx0qK0ppAUpP/ycCVE648kZX5QUwGa0lApX97a9/lRfD/NFeGYqfL+p8UScDZIAMkAEyQAbIABkgA2SgFRmgYMXOicjOiVasFMwzbwZkgAyQATJABsgAGShkwIpCVhCSNaW8vQhSIl7lp/7D6CkZWdVheo7KrU2lBScZYYXRVhh9hfWxRBTz/ebCsL9zYYjQJW61CJYLw6bHD6P54id/hfzRHrQHGSADZIAMkAEyQAbIABloDQYoWFGwomBFBsgAGSADZIAMkAEyQAYiGcCaUz1HeaOm8utM5UZbQRiCaOSLUd55PTLKW7Mq595OByhTCspIqXbT0079p+KwQlbOT4vFz5fx1ngZZzmznMkAGSADZIAMkAEyQAbIQCEDFKzYORHZOcEKU1hhaA/agwyQATJABsgAGWhFBrzRTxCtCkdY5afjg+AE8Sn/J6OvRMySvZ7qzxuZhfWsZGpB2UOo8sLKj75qnfhbkTHmmW0rGSADZIAMkAEyQAbIABkgAxSsKFhRsCIDZIAMkAEyQAbIABkgA5EMWPFIptuTqQHtPjciSk/PZ0dayXSAuWn+MHpKu7FiVH4qQBGuRMzyfufDaLX4+aLOF3UyQAbIABkgA2SADJABMkAGWpEBClbsnIjsnGjFSsE882ZABsgAGSADZIAMuBgYO3asmTlzptl///2Lnp922203c9VVV5m77rqr6JorrFLnbrjhBvP000+bc889tyLhlYqv1HU7Ogoik0z/pwQoOwIqJ0AVi1Jqyr/cWlOn37rC3P3SGnP8DSusiKXXrvLCajcDr+kw9768xox5YJUndFm/lYnfz4OsfaXWzpL482txeemvZP7jxF+qPCp5HezefffdZsGCBWbXXXeNxVvfvn3NtGnTzIABA0LdX3HFFebee+81hx12WKibYD46d+5shg4das4+++zYfoJh1PP3yJEjzcSJE81ee+1VlP7u3btbmw0ZMsRe69Spk9liiy2K3MVJP8KaP3++efbZZ02XLl1ShREnHrrhvZAMkAEyQAbIABkgA2Sg1gxQsKJgxRccMkAGyAAZIANkgAyQgRIM/POf/zT//e9/DbannnqqyF7ohJatf//+RdeTPOTvuOOOZu3atTa4G2+8saywksQb5RYCTi8ReEbr9adyo6By61J50/h561lB5PH//FFZ7Wbp1xts3t7+YoN/XfuD6HXW7Sutm9XrjD8yKyr+fcd2mDnvrTWLPl1v/17/dL15LXdsz322zr+26BPPjbjF/oDLc2tlOdbhEhEuKn47VaLNY06gExFMbKDyb9fqyo02E/sE8x9VFpW+BpFq48aN1t7nnHNOLN7OOuss6/7DDz8Mdf/BBx9YNyNGjChys9lmm5muXbuaAw44wJxwwgnm+uuvN++8845Zv3699YN/w4cPL/JX6bxXOjxpI5CnYNjHHHOMzdtvv/1mjjrqKPPrr7+aTz75JJXghHLCBnulFb2C6eNvdkaRATJABsgAGSADZIAMNAIDFKxKdE40QiExDWwsyAAZIANkgAyQATJQXwa0ICUjJHSZQNBavny57UR+7LHHijqrtVt9vMsuu5gVK1YU/K1atcqGI/+C1+U3OsB1WNU89kce+aIV1p3KiTwy1Z8dfdVmhS3fvUwjiBFYo9rN4OtXSLbMuIdXGetuFMSwnAhm3beZM2+DYLXJrFm3KTfCSo90Ck4v2G5Onp4P14tgkx+Pf+A4Za9tMqb/Fbm1uXLxy4gqb5+bujAnPnnTFebz329Shznsqg5zwHjPHYStsPyL314ybWLOLsH8V7MsMTrnoYceKvgTG0FACV7bdtttzWmnnWaF2lNPPdUyJ4LVRx99FMpgmGD1zTffmHXr1kmURXuIte+99545/fTTQ8Oupn2ShA1bbr/99n46owSr4447zuYVQhXq7qZNHpALFy40aD+C8Q4cONAMHjzY+Tdr1iwbFsSvMDdyHuUXDJu/63s/of1pfzJABsgAGSADZIAMhDNAwYqCFV9gyAAZIANkgAyQATJABkowgKm3sP3www9m6tSpZt68eUV/1kHun+u6S8jCdGxpt+OPP75m5WZHGeWmBLSiiy+4eOJMj1GYrg/HEHKwrpV3LAKNFX7GtJmHXl1js/vLXxtN70u9kVhTZ68x3/22yXz360b/75e/8+rSd79uMN/95l37/rcN5qPlG8zBE7y1s2x8o9vMydM8wQoawOgHV9upBEc/sMpc8sAqs/jLDQahffL9BjP6wZVmzIOr7PVJj6+2acG1fld0+CKTjHbyRCe1Rlcg//uObTdPvAnhZZNBvIu/yo0Yi8h/j9xIK8Th2SRnp5xQ5tmrrarlevjhhydCDiP+Zs+ebf1cd911Nm3lCFZakN2wYYP5+eefzQsvvGCn1DzyyCPNlltuWdX8V6pzAFMiYtOiXZRgdeKJJ1r3v/zyi83f9OnT7W/8u/baawvyfMopp/jXyj3Yb7/9CsKuVP4ZTngnC21D25ABMkAGyAAZIANkID0DFKxKdE4QrvRw0Xa0HRkgA2SADJABMpAFBjAKSqYqu+aaa1L3H2NkRdAeWrDaeeedzTbbbFPyD6IZtpoKVno0VW6UlYhFEKowYggCjxVh7HUcY7rA/N9B49tNux08tsncOn+NXQ+r36R2c8+LnogV17AQmE65aWVuOkFPKBtqR1h5Ilf/SR12xBREKPy98IE3mufFpeuMXOt/RYc5bmqHHyXS4eUHo7dyIpVNe/FUgXA35IYV5qv/bbRCmASy9Jv1kfkX8U4EMaxl5R17ex1/kJNK/u7WrZvBGmn4e/jhh/1jOYf9c889Z2666SZz/vnnW2bjCla9evXyR/x8/fXX1jS33nqrfw51SQSrQYMGGUwNWMm81TIsTFko24EHHmjzESVYDRs2zDr/8ccfrdvNN9/cvPHGG/YchDu9FhVGsmEkmutP4gzuXW5xrnfv3k1r41qWJ+Pi8woZIANkgAyQATJABhqDAQpWFKz4AkMGyAAZIANkgAyQATIQwcC9995r+4YhWqHDfdy4can+BgwYUGRnLVhhGrS333675N+aNZ7AU0vBSoQoEVX8kUIyqkpNFQgBS4+wEj/3v7zGCjwdqzeZgye0m2OnrDRYOmnjpk3mmqfWmIvvX2lG3rfKjLxvpZkx38vjuvXGjLxXzuOad/3ACXkhCeEXTwmIcU+BbVPhudyMbNbRoZM6rIAmI5xsmnN580dD5UaNXff0arN2Q1HoZuk3G2y+w/Jvw0GY/ug0jOpSQp8afVXtl2WMYlq2bJnNO6ae0/Htvffe9vwff/xh9tprL3strmDV0ZEXAQPWtz8xMksEKxF5dNzNdIy1ozAlHza0EUh7lGB15plnWrfff/+9b2+0J4sXLzbnnXeefy7KBph+ECO0sGFkF9oLbIi3c+fOscKICp/XGqOThuXAciADZIAMkAEyQAZamQEKVhGdE60MBvPOhpEMkAEyQAbIABkgA/8wEJk2QlUxxq6ro21yxBFHmIsvvjjWn2uNGoSlBSsbSYJ/tRSs9OggCC49RuUEI0yTp0dU4RiCjFrPCr8xomn1Wi9z0+estn4WfOyNfPrxj01mb0wPKKLXGKxh5U3xJ2tY+dfsqK3i+DHCalNOovq9fZP5vWOj+a1to/mjbZNZuz5v1N/bNxrvz3MjVw6dVBi/rEHlj4aStI1uM7+2ecrXho3G3PH8avPp9xtsMP4IK0f+IUyJnSRMG4cv7okdPdtpzqp1jPWqsD399NMFQscdd9xhz//0008GogzijytYYR03/GEUkd7kPKbFy4pgBbvMmDHDZvOvv/6yUxlqweqee+6xdoPt8Pf+++9btytXriw4L9dLjYSCyDh37lwbBta/QvuD6R0xOgvbu+++azB9Y7V4Ybh8JiADZIAMkAEyQAbIABmoBQMUrChY8aWGDJABMkAGyAAZIANkwMEAOoi/+uor2xmMf2+99VaBndDxHHcLW5dHC1b77ruv2XPPPUv+Sad4LQUrGQkkYovsfSEmJ7xAlCmYGnBMu+lzSZt5bZmnGmFc0h0vrDHzF3tiFew39qFVZr/L2s3+49tN3/Edpu+4DnPRfavscKh1G4w9v/+4DrP/OFxvN/uMhfjjCTwSv4ywwqipYPxz3vWUsrmL13kjmnIjmTCqSrZ+kzq8kU8yYkzyI79z+UK8EKx++nOjOW2GNy3hsu88weCD3AirYPxWmMoJedaOufht2nPhW7tZocubmrAWL4KyDtXatWtN165dLdvg9M8//7RmufLKK33e4wpWku7TTjtNTGtuvPFGPxxcF8EKa7pB8In622677Qr8SviNsu/Tp4+BeIQN9pS6ecIJJxiMpEqy9evXLzSvffv2NZ999pkf3KxZs3y3Y8aM8c+jvYoKp1HsxnSws4sMkAEyQAbIABkgA2QgjAEKVo7OiTBj8TwrEhkgA2SADJABMkAGWocBrOGjt6Bg9fjjj5unnnqq5B/WvQrjRgtWzz//vHn22WdL/olQVkvByq63BHFljLe+kxVhRNTJjXrCSCpfnLHrQHm/D7tShKHiafQ+Wu5No/dxTvTx7O258/8HvD3++lovHhX/yTeJeLjJ4PrM19fZ/eOv59fHWv7LhoJrLyxd588RiLWuRPySPHiCUm5dLohMufxf9tAqc+D43Eiy0e3mk1zaly7f4My/J1KJyNZmeuVGWyEeGalmR62p82G8VOL8fvvtZ+6++25z//33+3gvWLDAnps3b55/bubMmfYc1l5KKlhhDSzZMALo5JNP9uuACFZyPWq/xx57+P4qkfdqhPHmm2/aLMBGWrAaPXq0ueqqq/y/Tz/91M8qBCd9beTIkc58YkrGqVOnGpkGVAL44osvDNa8k/yMHTvWX2cPAhrape7du/vXxR33rXP/YlmzrMkAGSADZIAMkIFmZYCCFQUrvsiQATJABsgAGSADZIAMBBjYYYcd/Km2pJM4KFhhrR9McRbnLxtTAkK88YQbPUWfnf5vlB7x1GbsGld2JFGH6Tmq3XzzywaDqf/e/mK9wbpU2DZuMuak6SvsaCkrHtmzAXXKc+oJS7mRLBCkgvGfNE1EMXhAGCoce+j9DlzJudpkMCWgCFQ2bDulYbsvLnnxufO/7PsNdpQNRlh5oldx/q3gh1FauXDz+7yQpeOv5svlo48+KlaNtb/rrrsSCVaYlm7duvwIOkQCkfXQQw+1UwzKFHYQeiCa4e+1117z0yLnrr76arPZZps1fNt07LHHmunTp9vpPbVgFSzD119/3c/jpEmTQvOFUWUQu7A+lYzegkfYDetdyTnEpdcBO/LII80333zjx4GpTBctWmTOOeccs9VWW4XGF0wnf7NziwyQATJABsgAGSADZKCeDFCwCnRO1LMwGDcbAzJABsgAGSADZIAMNAYDm2++ucG6NN9++63BCClsQcHq77//9juHSx3EmRJw0KBBtlMfHftRf//73/9sdLUdYZUTdOzUeN6xjETqmRtN5a1bhWsd/sghEZYwggjHR1zVYTpWe+LRE2+s84St0e1m70s77DpX/a/sMP2vxJpXK0z/Se25Y5zL/V3RYacFtKOW/PWzOsyhEzvM1NmrzZRZq82U2WvsfuqsNWbq7DVGRm8t+26j52b2arvH9SnP4HiN2W+sN8JKRCMvDznhSU3nhzx4cWPviXQIF8rXB8vX566F59/zD385gS83PSBsKOHCjtVsB0499VQzbdq02H9DhgxJJFhdf/31BdVBBJZff/3VQNyRbaeddvLzCVEFG0YOVTPv1Q47SrD6/fffJevmlVdeCc3niBEjfHc4gPiHEWsHHHCA9QNbiSAIIVCvfYU1x8aPH290XAjj6KOPDo2v2jZh+I1xT2M5sBzIABkgA2SADJCBZmGAghUFK768kAEyQAbIABkgA2SADDgYwAgPjGC49NJLbQdyULDCCJF333031h86kl0vCHpKwHvvvdfccccdJf/a29ttemoqWOVGB4kAZcWpMRiBlJsyz4o6mC4QU+XJaKvciCQrznjn3vhsvR3V9L8/N5q+4zwRC8JPn0vbzOgHVpkx96+ye3v8gDq+f5UZ9cBKM/SmlX4cEMEOvrzdnHDDCjPkxhXmxGkr7X7IjR25Pc53mFeXeaN9Xl223p4/YdpKc+KNnh/48/x3mMFTVtjRYCK8WXHJn3bQGx3lyr8IYh8s3+inzfq1thFxyrOTFaVUmOIOApYVy0Z59nOxUs9zcacE7NWrl52+bsWKFea7776znKL+LF++3B5/9NFHdg8xWOcnC4LV5MmT/dFPWMNK5w9rUOkN9uncuXOBG3HfpUsXK5ZjRBamCtx+++2L3A0ePNggDLRBW2+9ddF1COSw6TvvvGMw1aiEzT07qsgAGSADZIAMkAEyQAYanQEKVo7OiUYvNKaPDQsZIANkgAyQATJABmrHgEuwwggsTLMV5y9sdBXKEOvQyAgU3aEd57iWgpUVU3JrLGGKP++3rOuEkUj5EUe++JITZrDuFdzf85K3nhRm9ps2Z7W5ae5q8/Z/1puVazdZ0Sgqz96YLGPaVm6yopLEf8Xjq/3p/6wbcRgILOR0wJUxF96z0hfcfHEqN6rK/x3I/7LvvTkOl37jrccVln8r5CmxyhuhJVMseoKejaPKI6zA3cCBAw3Wkir1B9ED7uMKVgsXLrQ2ve2228wHH3xgjzFiCNPV/fDDD0bWhVuyZEmBiNLMglWnTp3ME088UcBSULCSfC9btsy8//771i3albTtONqdyy+/3FxxxRXOaRMhkIdNQ5o2Tvqr3T2HtqatyQAZIANkgAyQgVZmgIIVBavUL0qtXHGYd944yAAZIANkgAy0DgMuwWrUqFEFHdRRP7CWzPnnnx/6zIU1sBCH/sO0aliP5rHHHis4L24uu+wys+eee4aGWWk+ZSSQXZvKjrbyRkf5Io4VdXIClgg8SsS69dnVxi5BtalgdSnfbMffsMI//vzHjeaTHzYU/C3/GZLTJvP3qk12FJNMMTju4dXmrxWbzN8rNpm/OjbZY+z/XBGQqHLrX2F4F67Az18rcvuce/we98gqT3yzaZc1p9SIMRk9poSnZd9tsGlf+s1601P8+dMIKr85wc+KbYFwPMHPG12F40qXXzA8TBEXZ7vyyittWuIIVkOHDrVBrl692gqxWrCS+LE+FbaZM2cW5LFZBauuXbvaEZZBWwYFKxltNnHiRDtqCu4///zzAhuIjWR/+OGHm2eeecaOuMRaXkuXLjVffvmlwdShGMkmW7BtufPOO60QOWvWrMjwJR7uW+dexrJmWZMBMkAGyAAZIAPNwAAFKwpWfJEhA2SADJABMkAGyAAZiGCgXMEKHcsQmIIvB+iQRgf+uHHjzB577GE+/vhj20GN0Vtz5syx/dFYJ+uggw4q8IvO/V9++cU8/PDDBeeD4VfyN4QYLU7JtH8Fo4nGeCOtcM5zi7031R2mAtTbb22bzIsfrDPXz1pthtywwhwy0ZvmEG76X5GbWlBGdI1uM8NnrPTsgRFWVgzKx+EJQHmxB3FOeHS1Wb/BE7l0vDhev8GYiY+t9tag8vMl0xcG8mnTIKOg1DV/7ak2f42spcs3WLHLlf+87XLpFjEvJP5Klp0rLBGsIKRA+Az+YSo5bEkEqzPPPNP6ufvuuy2XLsFq0aJF1g3WhdPpakbBar/99vOnPUSmMJ3nTz/9ZPOnBSusGYZtw4YNZtddd7VTAWI6P2wQq7Ud9LGM2kJdx/mOjg7rB2uK4Tem+sOGdbMw4kr8XnfddfY8/vXr188/L9e5Z0cVGSADZIAMkAEyQAbIQCMzQMEqonOikQuOaWPDQgbIABkgA2SADJCB2jAQJVhheq9tttkm9O+1116znccuwWrBggX22ocfflgwYgJr1vTs2dP8/vvv9vpvv/1mBQWsVYN1b3SHNDr6a8EBpq/z/nLTAWJavDGFa1ZZUcuex7Wcu5wwM/rBVeaZd9eZK2auMkdfu8IbJYWRWKM8AeegCXnB6rArO+y0fBCiEGev0e1m2C1eB//fK42/1lNY/DfMWW1HUcF4r32y3sxf4q1hNee9deblj7xjOLh5/ho/fm+KwUJBSscflX+ZEvCD5Ru86QqR50D+vbC8EVsiXtlzufwH4692mYpghVF8rrgwsgdbEsEKU19CsOnWrZsNMyhYYb22tWvX2nCHDx9eEG8zClZff/21zQtGUGJ6PtgR4hE2EawgPmNUFDZMlyi2xshJbBAM0X7Iedmjnq9c6Ym0jzzyiL0eFKwgZMt0oigniFZTpkwxmCr0jz/+sOGj/ZEwua/N/YJ2pp3JABkgA2SADJABMlAeAxSsKFjxJYYMkAEyQAbIABkgA2QggoEowerNN9+MtJ2IUkHBau+99/Y7mydPnlwkWOEl54gjjjBr1njrPiGciy++2Kxfv95OE/jee+/ZDmmM1IC4Ve2XosJRQxB2AiOc1JSAIsh4e2+ElZzzhBzv3JGT282U2avNomUbzMj7vc55ZAojrKyAY4UfL57hOcHKrmElo55yexF7Bl/fYV78cL0/5+CzS9aZPpe0mTnveaO75r63zvS5tN2KVt6EgZvMok/XmxOmrjQy1WHRlH5qJJXkJ7j/+LuNtizsGlb+iCkRv8Lzb21o3XcUxV/t8kwqWEGQwag/cIu0nXXWWTbPH330USh7QcEKI5CwyZSBOo/NKFjNnz/f1s/TTjvNt0FQsBo9erTNM/6dccYZvrv+/fv79R/rfWlb4PjCCy/0/WGEFs4FBSuce+6556y7V1991fTu3dv3A+FKNpR1MHz+Lq8Thfaj/cgAGSADZIAMkAEyUD0GKFhFdE4QvOqBR9vStmSADJABMkAGyECzMBAlWEE42nnnnUP/sO4MtqBgJWv54BrWo9Fr0mCEldgGndwYgTVgwAAzY8YMGxbEK0zh1tbWZn/XYhSFiEIQa+yoJxlBJMKV/R0UsfDbE2x6XdJmjpuywkx6bJWZ+fo68+VPnsgjK01Nm7varlGFDA24ut30uUT9XdpuTr/VE7Ta7AirNtNLxT/4+hXm+aXrzAYvSBvOzDfWmV5WbGozEKqgYmGP9Pce026efNMb6YP4N240dhTWwMmeUIb8eaKUiE650WJWICvOf34Nqw05fyJS5fOfn0IxF2ZO2PLjsr89fzgn5V+tvQhWEEQvuOCCoj+MHMQmI6yC6UgqWGGtJxkxdNdddxXlrxkFq8MOO8xgWk9tGy1YQdyTqf9efPHFAnfwM3XqVGtjTBU4bNiwgutvvfWWvYY6LiOwRLASAQthdO/e3Y7m+uc//2nDgKe//vrLjraS6QmXLFlSELZOL495HyYDZIAMkAEyQAbIACSZTqMAACAASURBVBloNAYoWFGw4gsMGSADZIAMkAEyQAbIQAQDUYKV7VWO8U8LVhCkpPMe4hNeELRgdcMNN5h99tmn4O/kk082P/74o40JI1XgZ8yYMX7MQ4cOrWoZWuEJAhCElZxYhNFS9jem7ZNrELSwllVO3IHw03d8h1m5ZpM/TZ+faGPMT39uNI+/sdYMne5N+aev4VimPIPgBHHJjrBS8T/+xjorOMmwqj86NpmrnsT6VHmxyROsjMGUgN5IKk+QuuTB1aZ9lahcm8z69cbcv2BtLk8yrZ+IV1ify53/977ACK5N5s3/eIJVMP+SFux1/PY3BL2cWGVFspxNq/3SKIJV0N7B3yJYQRDZaaed/KkvH330UesUYmpYWvUIq5tuusm6x5SAu+++e5GfZhSsXPkWwQoC1GeffWbzjKk9IWoH3W+22WbmlVde8e0yePBg6wZTKgr3N998s+8PU4NigwCFNgmjt+Tvqquu8tfTgtiIuEaNGuWHjekYg/HzNzunyAAZIANkgAyQATJABhqRAQpWEZ0TjVhgTBMbEjJABsgAGSADZIAM1JaBSgtW+++/v1m1apXtTO7Xr5/tSMb6PzKCwl6I+DdkyBDrBx3e6JxevHixHXFVTS56js6tV2VHH+WEGzUSScSX/FSB3kgkiDAYDbVuvTeWCoIS1pWa8ewaM+TGFXZ9KoR90ERvDatNuSFXsvfNkDvftmKTNx1hTuSZ/Y63JtXa9cY8tHCN6Ts+L1TJ6CURrOwIKxHZciPCjriywzy7ZL0vps19b31OcMsJVf5IrvT5tzbIjTQTwc8T/bz1uZB/Ebl62DXAajfCCsLpyy+/XPT3yy+/WNOLYCWjgfzyyB08+OCDoUKIFqy+/fZb6wMjC12cZk2wevvtt31TnXTSSc48ww477LCD+f77763b9vZ26w7rV82bN8+u97XLLrv4fp966ik/zKiDq6++2vrZYostzMiRI51imasMeK629xXam/YmA2SADJABMkAGyICbAQpWFKz8lyBWEncloV1oFzJABsgAGSADrc2AS7DCCAps6JjefPPNQ/8WLlxo3ekRVuCpR48e5qKLLip4DsPUbBg9gQ7s4B9Gabz++utm0qRJBX7QKQ3hqtqM2lFCEG8g+EBUEeHKThGYO49RTb7A44lanr82c84dq8yga3Ji0ihPDMqPWGozB0/wBCsY67ipK8yhEzvs3yGT2s0hE9vNBfd4At/fKzcVxH/whA7z8GtrzVHX5QQlR/xzF6+zgtQDC9Z4U/Y54scaWRjptf9lhdP/YSo/5LXc/OcFPdivOP/+6KpcXNUuz4EDB1rR9JNPPnGy88QTT9jrEyZMsNexhpXeMI0d1k3q27ev0z/SL+srjRgxwpx44ol2ejxMZenKmwhWYNx1vVnOof5iGzt2rEGdfeCBB0rm56CDDrLrek2cOLHA7Y477ljwG7abNm2aWbRokW0LYCv9B5ELtt56660L/DWL7ZjO1r7PsvxZ/mSADJABMkAGyIAwQMGKghVfaMgAGSADZIAMkAEyQAYiGMB0WkcddZQ58MADC+x0wAEHGKxTIw/Wrn3v3r3NoYce2vSjHPyRU7kRSlaAsQKWJ+iI4NIrN+rKCjz+CCyZIjAnYuVEILsO1SiIWG2m1yXt5uhrOszR13XYY4TniTyeyLXP2DZz9LUdZuA1Hb4oBvHMG5mUHw3lin/AVe12NBfWxbKCmiN+m16kRU1nqOOvdv6D8btYarZzW221lenZs6fBiCGkHcJuWB66dOli65K4DXPX6OeRfuQZohGmAcTIyThp3m677WK5ixMW3bCzhwyQATJABsgAGSADZKCZGaBgFdE50cwFy7SzYSIDZIAMkAEyQAbIABmoFAN5AQnikCdAQWTplROcZB0mOxpJpt2DOxzrkVdYByq3vpQdpeWPiMqPzrLijVqDSsQiT0BqjfgrVW4Mh20AGSADZIAMkAEyQAbIABkgA83EAAUrClb8mo8MkAEyQAbIABkgA2SADEQy4E/1lxvVhN9auPIFrdx5jHQS4cmfUk+ELhGx7CgqjLryRCzPPY4xvZ933hepRNhqkfib6YWSaWUHCBkgA2SADJABMkAGyAAZIAOVYoCCFTsnIjsnKgUaw2GjRQbIABkgA2SADJCB5mXAilN2yrx208OOqsoJViIg2VFU3ugnGUElQpT32xOlPGHLmxpQBC/fvR2RJeJVm12rynOfi6uF4mddad66wrJj2ZEBMkAGyAAZIANkgAyQgfQMULCiYEXBigyQATJABsgAGSADZIAMRDKw14j/5td3wogotdaTFpx8gSknZMmoKbvelJ3mT0ZUydpXIlB5UwLmR26JqOVNKWjDkTgzHn/3ET9ElgVfftO//NJ2tB0ZIANkgAyQATJABsgAGWhsBihYsXOCL8RkgAyQATJABsgAGSADZCCSgW6nva2m+Gs3+Wn+1NSAYzrseStg2Sn8ZFSVrGWlxKlR7d76VuJulCdgyeitvNCVG2ll3eXFqyzH323425FlwRfsxn7BZvmwfMgAGSADZIAMkAEyQAbIQHoGKFixc4IvxGSADJABMkAGyAAZIANkIJKBrgPvMnb0lL/+VF6M8kdb2bWocsLTGG8dKoys8kddqXWt9HSA1g3cqbA9wQrCmPzlxC7lxgpjaq0rbwrC5o+/68A7I8uCL7/pX35pO9qODJABMkAGyAAZIANkgAw0NgMUrNg5wRdiMkAGyAAZIANkgAyQATIQyUCnHfYxPUb/rcSnnJDkC0i5kVZqJJQVsuz1DtNzlENwwjW4x2grKzypMDH9n/Wb29vfaoSWCFmZi7/NwNZ8iW7sl2iWD8uHDJABMkAGyAAZIANkgAxUhwEKVuyc4AsxGSADZIAMkAEyQAbIABkoycBOR9xsMDIqv86UN3oqP8Iq99uuVVU4MkqPqOpppwPESChP5PJGSrUbnO+ZG5ll47BCloSJqQG9UVtZjn+nI24pWQ58Ma7OizHtSruSATJABsgAGSADZIAMkIH6M0DBip0TfCkmA2SADJABMkAGyAAZIAOxGNjh0Mlmrwu+y4+0wsgnCE8Y6WRHUWEUlPdXMB2gjLzKjYiSqf5ErOqB6QRtWLIXMcub4g/h21FYSsTy4s1G/LDpDv0mxyoDvkTX/yWaZcAyIANkgAyQATJABsgAGSAD1WGAghU7J/hiTAbIABkgA2SADJABMkAGyAAZIANkgAyQATJABsgAGSADZIAMkIG6MkDBigDWFUAq0dVRomlX2pUMkAEyQAbIABkgA2SADJABMkAGyAAZIANkgAyQATJABpqJAQpWFKwoWJEBMkAGyAAZIANkgAyQATJABsgAGSADZIAMkAEyQAbIABkgA2SgrgxQsCKAdQWwmdRdppVfI5ABMkAGyAAZIANkgAyQATJABsgAGSADZIAMkAEyQAbIABmoDgMUrChYUbAiA2SADJABMkAGyAAZIANkgAyQATJABsgAGSADZIAMkAEyQAbIQF0ZoGBFAOsKIJXo6ijRtCvtSgbIABkgA2SADJABMkAGyAAZIANkgAyQATJABsgAGSADzcQABSsKVhSsyAAZIANkgAyQATJABsgAGSADZIAMkAEyQAbIABkgA2SADJABMlBXBihYEcC6AthM6i7Tyq8RyAAZIANkgAyQATJABsgAGSADZIAMkAEyQAbIABkgA2SADFSHAQpWFKwoWJEBMkAGyAAZIANkgAyQATJABsgAGSADZIAMkAEyQAbIABkgA2SgrgxQsCKAdQWQSnR1lGjalXYlA2SADJABMkAGyAAZIANkgAyQATJABsgAGSADZIAMkIFmYoCCFQUrClZkgAyQATJABsgAGSADZIAMkAEyQAbIABkgA2SADJABMkAGyAAZqCsDFKwIYF0BbCZ1l2nl1whkgAyQATJABsgAGSADZIAMkAEyQAbIABkgA2SADJABMkAGqsMABSsKVhSsyAAZIANkgAyQATJABsgAGSADZIAMkAEyQAbIABkgA2SADJABMlBXBihYEcC6AkglujpKNO1Ku5IBMkAGyAAZIANkgAyQATJABsgAGSADZIAMkAEyQAbIQDMxQMGKghUFKzJABsgAGSADZIAMkAEyQAbIABkgA2SADJABMkAGyAAZIANkgAzUlYH/u/zyyw3/aAMyQAbIABkgA2SADJABMkAGyAAZIANkgAyQATJABsgAGSADZIAMkIF6MfB/m3fa0jTK32677Wbw1yjpYToahw2WBcuCDJABMkAGyAAZIANkgAyQATJABsgAGSADZIAMkAEyQAbIQHYZoGDVQIIdK1p2KxrLlmVLBsgAGSADZIAMkAEyQAbIABkgA2SADJABMkAGyAAZIANkIJwBClYUrDiijQyQATJABsgAGSADZIAMkAEyQAbIABkgA2SADJABMkAGyAAZIAN1ZYCCFQGsK4BUk8PVZNqGtiEDZIAMkAEyQAbIABkgA2SADJABMkAGyAAZIANkgAyQgVZhgIIVBSsKVmSADJABMkAGyAAZIANkgAyQATJABsgAGSADZIAMkAEyQAbIABmoKwMUrAhgXQFsFWWY+eRXEGSADJABMkAGyAAZIANkgAyQATJABsgAGSADZIAMkAEyQAbCGaBgRcGKghUZIANkgAyQATJABsgAGSADZIAMkAEyQAbIABkgA2SADJABMkAG6soABSsCWFcAqSaHq8m0DW1DBsgAGSADZIAMkAEyQAbIABkgA2SADJABMkAGyAAZIAOtwgAFKwpWFKzIABkgA2SADJABMkAGyAAZIANkgAyQATJABsgAGSADZIAMkAEyUFcGKFgRwLoC2CrKMPPJryDIABkgA2SADJABMkAGyAAZIANkgAyQATJABsgAGSADZIAMhDNAwYqCVd0Eq1599jb4YwUNr6C0TePahvw2btnUot6w/Fu7/MthjOxkgx2WYzbKsZy6TL+FDLBOFNqjWflgOWajHMvhjwxkgwGWI8uxnHaAfqvLD+tnde1LfpvLvmH1gYIVBau6CUZ9DzzI4I+NSXM1Jiwvr7zIb2tzy/Jv7fIvpx0kO9lgh+WYjXIspy7TbyEDrBOF9mhWPliO2SjHcvgjA9lggOXIciynHaDf6vLD+lld+5Lf5rJvWH2gYEXBqm6CURiUbFyaq3Fp1fIiv63NKcu/tcu/nHaP7GSDHZZjNsqxnLpMv4UMsE4U2qNZ+WA5ZqMcy+GPDGSDAZYjy7GcdoB+q8sP62d17Ut+m8u+YfWBghUFKwpWZKBuDDTzjSSsUW3mPDHt8W/sLP/4tiJXhbYiO4X2aFY+WI7ZKMdm5a8R0806kY06wXLMRjmW00aQgWwwwHJkOZbTDtBvdflh/ayufclvc9k3rD5QsKJYUTexIgxKNi7N1bi0anmR39bmlOXf2uVfTrtHdrLBDssxG+VYTl2m30IGWCcK7dGsfLAcs1GO5fBHBrLBAMuR5VhOO0C/1eWH9bO69iW/zWXfsPpAwYqCFQUrMlA3Bpr5RhLWqDZznpj2+Dd2ln98W5GrQluRnUJ7NCsfLMdslGOz8teI6WadyEadYDlmoxzLaSPIQDYYYDmyHMtpB+i3uvywflbXvuS3uewbVh8oWFGsqJtYEQYlG5fmalxatbzIb2tzyvJv7fIvp90jO9lgh+WYjXIspy7TbyEDrBOF9mhWPliO2SjHcvgjA9lggOXIciynHaDf6vLD+lld+5Lf5rJvWH3IjGA15YYbDbbf//zLbL/jTrFFmK++WW5+/vU3M+KikbH9EP7KwB8GZTXte94FI2x5f738W9Npq61Z5hRsUzNQC37T8prWXzXrXtbCrkX5V9Nmae6Zu+y2u2nrWGHvtVdePTl13almvpoh7GZnpxlsXIs0ZrUcw+p52vvKx598ap+7xo4bX/M2o55x14LBRovDVSfSctNoeWul9GStHMlg8vd2FwPVqgPb7bCjefLpWeann3+xz5fYVyuuVgu3luXYaratZX6jyvH0M88yi99fatZv3GTrz+hLLrX1J+w9L8vPRc3Wr+sq1y223Mp079mr5N/Ou+7GdpL9mJliwFUf0M5mRrBas269baTx75zzzo9deOLptjvujO2nljeoLMcVBmU183zzjFulyM1W22xb8zLv1Wdvc9gRA8wee3WvWNzVCLOaZZCVsMP4rWR5pOU1rb+slE0t8hFW/rWIO04cW2/b2bY1/Q8/wtnWhN0zo/zhJUi2P/762xlunLS1upswdirZdrS6jWuR/7ByrEXc1YwjrJ6nva9Im/HvRx6teZtRz7irWUaNGrarTqTlplHz2Arpylo5ksHGFqzQyRzcWqGe1SKPrrpci3gZR/I6F2WzsHI8+ZRTg1XHQKhCWGHveeIh+EyWhXcQyVuz9Ou6yvXc8y+QbETuNxqT+pk66l0/ikNeq2y9pj0L7emqD7BRZgSrZ+bO8yv1nt17xK7A4qlZGrYsgR0GZTXzWO+Xlo6Vqyxy+LqlUvmsRpiVSluWwwnjt5LlkZbXtP6yXF6VzltY+Vc6nrThXTjyYrm9mYFHHV3U3oTdM6P89dlnXz/MRx+fWRRm2rS2mr8wdirZdrSaTeuR37ByrEdaKhlnWD1Pe1+RRiPYOVLJNIeFVc+4w9KU5fOuOpGWmyzbqdHzlrVyJIOFnUJx+HMxEMdfUjfd9txLmmm7R1m5nlmThkv3XpnXqhxp7+R1LInNwspx3rPP+fVn0RtvmpGjRpsdu+5s38/C3vPEQ/CZLAvvIJK3ZunXdZWrfg+X/ITtkzCk3eo42N5Wt+5qu/M42tau+gCbZUawQmZ23b1boukA4Ue2ZmnYsgR6GJTVzGO9X1pWrl5jkfvks/9UrLO3GmFWswyyEnYYv5Usj7S8pvWXlbKpRT7Cyr8WcceJAy8tsh31r2Oc7Y3rnlnKH16EOA1B9ANXqfIJY6eSbUepNPB6eWUI+4WVYxZs66rnae8r0g4FO0dqYad6xl2L/DVaHK46kZabRstbK6Una+VIBpPf71wMVKMOnDJsuDTT5oqrrnY+q1Yj3lYJs1bl2Cr2rFc+w8rxhx9/8uuPK22u9zzxEHwmy8I7iOStWfp1XeWqxaRpN91shpx0svPv0P6HpW4vS73ru1jiueT3Udosmc1c9QE2zIxgtdPOu5jDBxxp9ut7QGjlxVRsEyZdYYaddrrf4dZsDVuWwA+DEnnEdH1HHDnQXDb+cnP+iAttuWJO16j879Wjp8FUNmeefU6ocBnnpWXLrbcxxw850YyfMNEcdMihkXFKevCF2EUXj7JftrgY3H2PPS2fwhvWWgOvYLJUviSO4D5OmAccdLCNB3PhBv3jd49eve31/Q840L+OPCNtXbbfwaZt0NH/MpdeNs6cdc659pwrHH0ujf20/2Y5DvIbpzwkb+AbDxoXjx5jxlw61h7DbnJd9kFeIRSg/UI7hjISd8F90F/wOn7HqS8ufzzn3XyD5Q+7oHxQLvvst78tG7QLaI/Qlhx48CGh5SU2BUOY3gHli5d4vGjINb3XdRTD+k848SQz8YorzdHHDLbu+x12uLn73vukubHXkC6UuYTjumfG8SdtSthakeAY6bh84iS7d3GNNARthd9nn3uebfOPOfY4s22X7fy0Sppln+b+IH4bYR9kp1TbIWWFMnStvQgb4xr+dtipq7Vb0L5JWYSd2EZEP2gHyxE2q4TdUVZ4YcUfjksxiymGpZ059vgT/K9rXf7i1h1XPQ/eV5DXOPcjaYiCnSM6fdViLSpuTJeKOiPttU4P6lSp50CxUZLnK4kjSZmJn2bYu+pEkBudD9hB2i48c+prOC7FRZq2MRgHfxe3c1krxygGpfzj1Hm41c9feH/Dexye8fD8gtGpEl6z710MBO9vPXv3se/d4y6fYDpvt31B3kvZU2ynywbhoD1AuM1uv0ZJfyXKsdQzvdwLd+u2R0G5gQlp37FOmbYJ1srENVc/S1bvjzr/SY+D5YjZpGA/TAuH7Zfffvdtjec8hC/3x2C/VM6LkWeyUu8gwbSWqtvivpLthYSp91no1w2WK/KnBSt5r9f5Dh7jvU/qWddddi2oZ3CL8sd14SDOu36SsovbdxFMN38XP3u1uk1c9QE2yYxg9eC/H5b2t6iiXnPd9f41faDPN4sSnyWQw6DUqr8uL6yZ4ur0hZDS1rFCO7XHy7/73goy2mb6wVhu6HIdHaSvvf5GUTg4ceP0m4q4gj90ErWvWOn0g45nCfutd951usFJdIqIuyT7UmGiY1O27//7ozOOn3/9TZzY63i4ke3xJ540v/7+h/z090s//MgpCKaxX5L8NprbIL+lykPSD17DtjPOOrugnDSvur3S/q+fekOBH8Sj/QU5T1JfJM3cFz9UBMsfNnpq1my/aG69/Q7/WA42bDJWpAzaEw+Yry56XZwV7D/46GOjX/R0HV342qICty8vWGjbyIKT6gfWCZC4g/dMtK1hm/jDS4psN90yww8LYeLF9M2335HLBXucD3ZmaFvNnjO3wD1+4CXsX4OPLYgD8SS9P0h+G2kfZKdU26FZGnrqsCKbYMFl2dBOIK/avtq/uAtjEX7ZRhTXdxc/wXIs1+7o8FyxarUUkb/HV6+utVnR4YPR2q4NZR4UN+PWnbB6ru8rSe5Hkj7pHNG2rDZrYXHPnf+sXDJ4VpQ0xX2OSfN8hTiSlpmkq1n2rjqhudHPI/hoR2/6mTkuF7pti9s2Nost65nOrJVjGIOwcdw6D7f6+evp2c9ofP3jOfPmF7W99SzLtHG7GNDPFe8ted/PMw6w/k0Se+JjyLDtr7Z2v01Om376855j0pZj3Gd6/byAKei03fGxq2xXX3NtwbWHH31MLvnvB1m/P2rbJD0OluOyTz/z7Rc8OO+CEdbWwfc8iVPcyzNZqXcQ8ZekrYSfSrYXkgbsw54/9flm6dcNlivyl1SwgtAv26f/+bygnkFMlm3dho2x+wjilF2SvgtdfjyO947ZinZy1QfYITOCFRpd2XQBQ1CIszVLw6bz1uzHLijjLDSIG6bkHfOuRm1//t1WIK5EvbSEdbZK+JeMvcyPF/GjM7XUhg4ouH32+RdCnQ4YOKggXMlbqX2cMBe/v9SPN/gVcO+99/GvvbLwVZsG3HzibAg3mL6k9gv6b7bfQX7jlAe+fi+1wY3YQvMa5U84c/nTHURJ64uEx33xw0Ww/GGjWc/MiSom/1pwir4vvvrav+Y60FOIRtVRdJToeh0MS9fb4D0zjj+wJBvYFC7Qebtk6Qdyybl//4MPCzpx4tpKC11J7w+SvkbbB9kp1XbgazjZ4DaYHwiVsu297372elz7BllkG1Fc14P2lt/BcsT5tHZPem9AXPiIJ2rTH9okqTth9Tzt/UjSKJ0jYr9asOaKWwvk+GgHbaqkKclzTNLnq6RlJmlqpr2rTmhu5HnkkH79pWjsfuy48X4ZJOEiTdvYTPasV1qzVo4uBsW2Sep81POXBlo+HJE4mnHvYiDq/ibrh8e1Z7AN0PbTHxE0o+0aKc1pyjHpM/2P//vZFh8+HtZ51x8B42NXfe2/P/3P+kE/jZxP8kwjflplHyzHN956W1eZgmPM0AG7BN/zxFbiWJ7JSr2DiL+4dVvcV7K9kDCz1q8bLFfkM6lghfoqdRBlq/srv/n2OyluM/z0M2L3EcQpuyR9F1J+3Md/x2xFW7nqA+yQacEKc/DrDaIUHqgwZP/Jp2fpS4aCVe0rkAvKd95b7JeLfC2Joa4vvbLAP48pAgHvNp27+OdwMOWGG+3Xqxjy+u7iJf41fEkrlT7spQV+ZcOooiMHHWVHNeArFb3JNAUQzfR2z333GwhC6Cy86557/Uv/++VXP26koRrzA0eFia+yZUMexQ7YT7/5FrlkThp6ir0WfBnDApyYbgxTtaA89Hbl1ZP98JLaT6ejWY9d/CIvUeWh+YbN0EaBqYcefsQ3Lb46E5toXuEAX3SCMUyXcMutt/l+cKA73bQ/6SBKU18kHdwXt4+u8g8+4N159z12SiN8efrYzCcKykumAj340H7+ebzsYXoMTPOHOrl+4yb/mkzBF6yjHy37xGAKPXyZiC8dpaz0aIqgKAE3YS8yUf7COrI1i3+3d5jjThhiv1rGXo9+hTtJX9BWmFoMI8nQsa5fWvFb/Oj6U+r+IH4ace9iB+mMaju0TXQ56zL59vsffFsF7RuHRbYRxfU8ih9XOaaxO0RZvc247XbbbmA6ND2CBG7kgx3dbnz48TJ/FCamD5ENdVHSn6TuaKZwL5Ew9H0FccS9H0l6pHME4dWKtWDcelQERp7LFJpIU9LnmKTPV0nLTOzeTHtXndDcgC3c4/SG6bQlj2m4SNo2Slzch7d3WSvHIINS9knrfPD5a8Grr/nvfvc/+JCPte6El7iabe9iIHh/w/TVeL6VdjSpPWET3QGNaauazU6Nnt405Zj0mV5PQY53EdgE7zjBDe0/rqFPQbZHHnvcnmuF+2M5rLjKEeHJTDhBQRDXwt7zxPb6mQzuo95B0tTtSrcXWezXdZWrFqzwzIq1/Vx/8CtMoe9Tb1hSAO2zbPOefc53Cz9R7/q4XqrsdH2N03ch6eQ+/LmLtglfGzrTghUWqZNNixYChP4inIJV7SuQq5HWL56YekHKCp00p51xphlx0Uh/fQZ0wsp27/0P+G7hB+7RWYMNU+xIOGEvLXpaHflKTPyMGnOJRGPXqcJ5Pbrq+Rdf8sMXP3p6Lz0vf9TDgPhNuo8KU3c8BacFhJgmm3SeB1/G9M0Q6dJfvuJLG0lrUvuJv2beu/hFfqLKAy9jeBCRr58k/xAoZPt6+be+XTWvmBpO3MteP1Do6XS0P3lBSFNfJB7ui9tHV/nr8pj/3PNF5aWnUMEwfdgVZY92DVwER0FihIRsEI7hXtdRrIWnxQtdTqUeRsNeZKL86fYEjEl8n33+hSTT7Lt/X/88ruO3bHAnE/SBXwAAIABJREFUfrStLrjwIv88rutOdz31YJL7g8TTiHsXO0hnVNtxw7TpYkb78YDkC/dF2bCOmZzX9o3LItuI4nou9nTtXeWYxu76eQKjf4Jx6RFBMk2mFksgRmo/aFvQpohbXEtSd8Lqub6vJLkfCZ+6c6RWrOm4n3jqaflpvvz6G1/kE9slfY7RdorzfJW0zCRdzbR31QnNTXAaQNhE5y8NF0nbRh0fj91tXtbKUTMoz8Qo+6R1Xj9/QZTCl+2aIUzHJJs+34zHLgb0/U2mHdN5S2pP+KVg5a6D2q7lHKcpx6TP9LrdFi7w4W9wQ78c8qI/gD3x5KH2XCvcHytdjgivVoJVmrpd6fYii/26rvqpBatgHdK/8YG8Zuqqydf4l/W9CFMB6qUF4CfqXR/XS5Vd0r4LnU4eV7fNb2b7uuoD8pNpwUq/xOAlKViA6DSWjYJV7SuPC0o9kgplg9EmeLDRoo+Uo56rFiOcxlw6tuBPyhZ78R/20qLdBsNBJ6Bs8iUQ1g2SDQt3S5pK7aM6JEv5DbteKkx905EOcXwRJxtG90jY+mUMnetyXu9/+PEn63XVmrX+dQkL+zj20+E167GLX+SlVHnADb4iRmciRo9g7mH95RKmSRCbaF7RMS3nZa+/VMaIOTmv/cnLeZr6IuFxX9w+uspf17VS95yLR4/xy0vsi3qJIfu4hhGMeqToqcNPs+51Hb3vgQeLwpCwSj2MVlKwkvof1mZooU7Sp22Fr+bkPPb6K/sHHvq3fy3J/UGH12jHLnaQxqi2o9uee4mZ7RSzkidtE21Hbd+4LLKNKK7nYmfX3lWOaex+3ZSpftm6ygrnZINbpAUjc/WGkZb4mlIWVQ6mV3MCf1HPVlqIwb1EwtL3lST3I0mnFqxqxZrErfeff/mVP1JN8oa93uI+x+jyLvV8lbTMdNqa5dhVJzQ32sa41wXzlYaLpG1jME7+Lm73slaOmkF5Jka56y1OndfPXxDAg+zodXnkQ8Cgm2b57WJAt3cy2lfnJ6k94ZeCVXH90zYt97iccoz7TA/hVjbMYIQ0337nXfYUhN1ffvvdHsszgB6NKPWxFe6P5ZSlqxwRXq0EKylf7OO0lUhbpduLLPbruso1rmA1+drriu5BrrXNMAtLkL1SfQSlyk6HF6fvQrvncXXb/Ga2r6s+ID+ZFqz0C7rcEHUhYlot2ShY1b7yuKAMDmmV8sEecyFjzmspwxdeellfjjyWdaJcLy3oZIi7YeodxF+KLUljcB/VIRl0G/d3qTCRd9kgjCDcaTfdLKeMjPTAef0yhgdKVxq03dGxnMZ+rnCb7ZyLX+QhqjzwhYtmxy8EdRAmWPXo1buoPPRit5iaRGzo4lyXm4rOeSj1RcLjvrh9dJW/fsBz3XMwelM2LRTj44m16zfIJefeJVihcy+sbEo9jFZKsAKXsmlxSadLL/wrHGtbabdy7Aozyf1BwmnEvYsdpDOq7cB13H9kQ90HY7LpEa9wq+0bl0W2EcX1PIofVzmmsfuLL78ixWjLNBinLme4let6Klk/AGNM+4qV9iMI3WGapO7o+HAvkfj0fUXqsVzDPux+JGmTziq4rRVrErfeu9aBS/sck+T5CvlOUmbats1y7KoTmhtdDi5xNS0XSdrGZrFlPdOZtXLUDMr9ME2d1+9I114/xW8bpazQlyCbbn/lejPtXQzo+1swL2nsiTAoWCV77gjavdTvpOWY9ple1jfCzA9I03c//NdWBdzzMAsONoz0xjVMX40tOI1d1u+Ppcoq6rqrHOG+FoJV2rpd6fZC959IO65t1oz9uq5y1YIVZhzReSx1rPsZUMdcz7sIo1QfQVTZSRqS9F2IH+6r2943u31d9QF5yrRghfk6ZZMRNrog9SLzFKxqX4HCoNx5190MXgRkJI+UoewxbyrKEdMcyQa3eADSf7L+CxZvRVnDj+ulRX+difB0GHKM87/98addnwrhzJk3X6I2sraMZivsuFSHZJi/qPNxwsRaVNhk2pqffv7F/saC4zps/TImo8n0dRwvfG2Rn3c8MKSxXzDMZvwdxm9UeWC6v+CGMtDTL4QJVsGp1mAzfOEom56a0sV5mvrSjOVSqzS7yl8/4GFdmmBasH6ibBgViutYqyq4ocMZ7ZbeGlWw2n2PPf1kPvr4zKI8I484L9tu3fawbrStgnbCb9mCIljc+4MrzEY552IHaYtqO3Bdv8Rg5DFGKMh2+plnFdhe2zcui2wjkj0Hucoxjd0xZbVsrrLC86tswemtjz3+hFDxJzgVZNy6E0ewSnI/krRrwapWrEncwf34CRML6ks5zzFxn6+k/UlSZuKnWfauOqGfR3Q5wG7B5+e0XCRpG5vFlvVMZ9bKUTMoHZ1p6rx+R3J9MNTKglUae4JxClbJnjuStguuuqyfU4LhpX2mx2whsunRUrjf6SkD9QwvrhEiWb4/Bm2d5LerHOG/FoJV2rodxVmaMLPYr+sqV/08k1Swwof9ekO/k+vjiXIFq6R9F0lYp9vq3hMa2b6u+oD0Zlqw0nN5Djr6XwUvp8j82eee59dpCla1rxxhUOqKhM4brMWATn3Z8LU+3GABQtlc0+jocOTY9dKCa7KFDX8X/7JHZ4dseLiS87JHurFgul6HC9dKdUiK/yT7OGHqfOv1YYIvXPplDMOKXenA11PY9KLCYou49nOF22znwvgNKw901MuGddUwv7d+iMA5bGGClcwLru10xJEDJUijy1KXt7ycp6kvOi4eF7aRrvLXD+el7jmYDhI2fWbuPL8MZ9x2u0Gnstgai9HL1qiCFdIq28effOqnXfKAvZ6iQM5rW8k5vZcwg4KVdhN1f9DuGu3YxQ7SGNZ2SPr1VIn4ak6PzAmuZabtG5dFthGFdVzsHrZ3lWMau+tph7FOZDA+lJ9smPYveF1+73/AgebxJ54Up3bv+lgL7qPqThzBKsn9SBKkBatasSZxY68FXvwO1gtxm/Q5Rt9vo56vpJz0PkmZaX+NeuyqE9o+x50wxHz1zXIxtQnaOi0XSdrGRrVdI6Ura+WoGZRnYthbtiCHYWWh35H0M7e4b2XBKo094YeCVbLnDmEt7t5Vl/VziiscqRdJnun1yA49UhbPpnjXlU1f23vf/UKfZ5CurN0fXbaOe85VjvBbC8EK8cgWt62En7icxQ0zi/26rnJNK1jh3iZ9dFJe2LtGA5crWCXtu4jLOd1V937Q6PZ11QekOdOClf6iA4vP6c5hjEzAiBnZKFjVvoIEoUT5YE2Wp2bNNsGvxfUw3zfeets+4OjOeoz6CVbCy8ZfbjDqBPOMS9mHvbRgAXHZDjtiQEFYu+7ezQ6pRVj4ogDx6C8YMApLdxYiLv1CjhdpSZt0SG7YZPxzci3tPk6YEM9kQ9yy7bLb7gXp0C9jcCMLpErazh9xoXg1Ly9Y6PtNaj8Jr5n3QX4lL2HlccKJJ/m2mz1nrm87+NOL04YJVphKAZ2MEg84w7olsuk5il2cp6kvEhf3xe2jq/z1w/l/vviyYEFutAMyjzvKDF8Zwq561J3+2hzlq+tVOYLV2HHjfW6kLONMCRj0F9aR/f4HHwqGBh2SEgf2+C3bkqUf+Ne0rbR7ORY/IljBHknuDxJOI+5d7CCdYW2HzoMegSA2mvnkU75dxa22b1wW2UYU13Oxp2vvKsc0dsczh2wQd8G6xIdjLfjKmpmoV3hWQp0IfhijR0EjjUnrTlg91/eVJPcjyZsWrGrFWjBunQdcw1e+Ymvd3sZ5DhR/cZ+vkpSZhN1se1ed0DYHW/rjHZQB1jqRfJbDRdy2UeLiPry9y1o5BhmUsk9a5/U7EgWrYn6S2hPlQMGq2I7CZyX2rrqsn1NccaR5pkc4f7W1yy3X7t96512/bceyDnpbs269fw1+W+H+6LJ13HOucoTfaghWrj6qNHW7FGdJw8xiv66rXNMKVngfkO2WW2+TQ7uH+KtZ04JV8F0f7kqVXdK+Cx03j6vb5jezfV31AflpUMGqk9m8U7K/fz/yiF8xxe+2XboY1Tdv3njrLXPOeeeZERddZD757DPfPQ5uu+OOxHFKPNwnKyuxV98DDzT4k9+dt8tPb4YymXjFFaZHr15m3/33N4veyD/oXHn11dbPVttsY9auX++X48LXXjNnnXOOOebYY83Djz7qn1+3YYPZYks0Dp3MzTNm+OfhX+K+bPx4/zwOrpo82Rx3wgnm3PPPN20dHf61sePGWT+dttqq4PySpUvN2eeea8446yzz6qL8lHkffvyxHwfi+uHHH/2w7r73XjNg4MCC65KeJPu4YX72+ed+3DhAmoPxdN1llwI3+HHdlCnm1OHDzY3Tpxdcg23Ef1L7ib9m3gf5lbyElUfQtqMvucQcPmCA5Vwb9r8//eTbVfMKNyjDC0eOtO3Ya6+/rr0Z1B9Jg/YnnKepLxIe98VtnKv8Zz3zTEGZvPXOO7YNueDCC81Hy/LrD/35N+Zx98Kc+WR+RMQrCxeaY48/3px48slm8fvvF4SFOgg/mqNrrsOCq8Vpw7lThg3z/f/+55/m/BEjzK67Q6D23LvumaX8gSHZwJiEdelll8lpu7/2+uvN0FNPNdjrDe7Ej7aVnNN78ffAQ1hLr5PlW85hX+r+oMNqtGMXO0hjWNuh0/+vwYO1Gexx/8MP9+0qbrV94SgOi2wj3HVJbBrcu8oxjd233Hprs3rtWr9cX3/zTdvG43kVz62ywQ3cIh0zbsu/jP7niy/M4OOOMzvvuqut5+Ieezz7pHm2kjB0Pdf3FVyPez+SsNDmiA1rxZorbtQF2b774QeDtCBd5TzHxHm+SlJmYqdm27vqhOZGbI1nX73h2Rl5LYeLuG1js9m0HunNWjm6GIRdk9b5Us9f6EuQTd4761F+lYjTxYC+v7niSGpPhHHm2WeLyew7kStcnkv2bKLtlaYc0zzTI85HHnvML0scjLv8cv+ej3devc2eM8e/Br+tcH/U5ZL02FWOCOPX33+3Zl364YcF9sS1sPc8KQf9TAb3Ue8gaep2pduLLPbrusoV/TyyoT8Tdcf1h/ds4WjQ0UeLF/O/X36xz/7ol5QNfUvouxT3pfoISpVd0r4LiZf79G15K9jOVR+Q70wLVsggOnLibBSsal+BXFDee//9JYtLd7rus99+Jd0PO+00v4EOe2kBK4/NzK+z4gr08y+/9Ds24B5iWqntyEGD/LjD4jh+CEYkpLe/K92uMIMPi+ddgCnJCuPVL2NReUOcQb+udOgwgvYL+m+23y5+kQeXHaQ8IGCW2qIEqzC/EL60/cI4T1pfdJg8LqwrrvLXD3hhZYXzffbBmnpeeK5ONpffpILV7nvkp6CU8L765hs/3rAXmSh/6EyUDYxJHrDX4YkbvQ++GGlb6XDkWPyKYIXzSe8PElaj7V3sII1RbYfOw5p168Q85q+2toJyEHfavr5jx4FmEX7ZRhTWc7Gna+8qx7R2RzmU2nRZ4Tmo1HbTLbf4bCSpO2H1XN9XouIO3o/EbbANqAVrrri322GHgg+O5syb59vJVQclDOzDnmPiPF8lLTMXc41+zlUnNDciWCEf+ABMb/sfcIAth3K4iNM2NroNGyF9WSvHMAZh6yR1Xr8juT4YanXBKqk94Z6CVfxnjjRtg6su6+eUsDCTPtMjnJOGDtVNuum2557+vXWX3XYruCYfKUj8rXB/lLym2bvKEeFUUrBytYXSf4G4XNd1oQafj+JwljTMrPXruspVC1bavq5jlAs+Slu1Zo1/WX/E+N6SJf55/d4e9a6PMEuVXdK+C4TJP9qgFAOu+gA/mRGsbr/zTr9CBo2Bjr7giKoVq1bZr9jF0/VTp7Ii1bgxCYNy/IT8wp1SPtjjq2N8QRws3yOOPNK8+fbb2qk9Xv7dd/arY+0eLxiyyZfKch1fw4EjfJkQ3O574IGCESzi55B+/UxwpAv8fvPtt0ZevsUt9jt27Wrmzp9fEPyQk04qypP2U+o4bpjBr6y33nbbonj1y9idd99tFrz6akFaUW/Qgay/0pD0pbGf+G3GfRi/UeWBr4OCNoWBH/z3v/0RNfhaXuyhecWLQMfKlQXlga+6h59+uu/e5S/IeZL6IuFxX/yQ4Sp//YAHQViP8EXB4Qs4POQF7XnyKaeY9Rs3FpTtb3/8UdChh5Gj8Lf9jjv67vTXi8Ew8RsjTn/6+WffPdolcRd1zwzzB5Zkc3XW4AtJHR/c4vett9/uxyvxP/TwwzYo2EjO6b3EgzD1+aT3B+23UY5d7CBtUW2HTvujjz8u5jHTbrqpwD7iLi2L8M82ori+i1313lWO5dgdL5l6RJUUMs7pF1BJQ/eePW2bIu5kv3L1ajvSStzJPm7dCavnae9Hki60OZIW2VebtbC4MXJfb/K8lvY5Js7zFfKctMzETs2yd9UJzU3weeTp2bP9YsAzvuQzLRdx2kaJg/vwdi5r5RjFYJI6X+r5C30JsjU7Xy4GSj23Ic9J7An3eAeW7YCDDvLbgGa3X6OkP205Iv1JnunhHv0KskFICdoAH2TK1mV7THFf2AZl/f4YzG+S365yhH+812HT908JN+w9T8og+ExW6h0kad2uRnuBvGWpX9dVrqefeaYUUeQeIhXsMWrMGN8dRjlK+WOPOqU3lKFcD3vXx/U4ZZek70Li5L6wzaM9Cu3hqg+wUWYEqzgFjhfK3nvvbfbs3t2vrHH80U0hTJWyRxiUEj5unD1797ZlJudK7dEwoyMCZV3KbdT1HXbaycaL8KLc6Wtwiy+gXWKOdodjfGWKr3yRR/yeMGmSHUqPG03cP9xodLjBMPU1HJ9w4on+PSs4FF/casFKOqRhS3SW9erTpyA+8ePap7GfK5xGPleK36jyQKcN2N6vb1+zTefOse0Ke+yx116WTdfDflJ7Vaq+JI03C+5d5a87qyWPGImJ6Y9cArG4kf1u3brZstVfJcq1cvaoj+AlThp0PGn9oVMH91rsdXiVPE5zf6hk/OWE5WJHhxfVdsDd18uX+2052gPtV47LZVHCYRsR/vzjKsdK2h1th5RD1B4voBiVAvdxnn0qWXdqcT+qxPNRlP3CriV5jonzfKXjSVpm2m8jH7vqRLnpTdIGxWkby01PK/hvxHLEO0jc9yNxh043vGvFLbMkdT5umM3qrhIM0J7hzw+14qIS5ViLZ3ptj6zeH3Uekx5XohzjxlnqHQThVKNuJw0zC/26tSzXsPKH3dP0EUh41eq7kPC5r/99pFZlEFYfWkqwqpWxGU+8ihUGZSva74+//vI7IOMeuL6mcdkOIhSmXMBX17Ltve++zhc4l2DlCpPnOtn118AwbRGvvmfNTq72y9VZnbV8Mz/l8+5iJ45dMaIXozFle+Gll0LbH7JYfjmVKhNXOdLulbd7NZ+PSpVxqetJnq9KhZWF6646UYt8JWkba5GeZo+jEcsRa/ql2WT0ZLOXSa3TXy8Gap3PrMfHcqz8M0k9mGE5ZqMcg+ywXLNZrsFy5u945RxWHyhYBYYjE6h4QFXCTmFQViLsZgvjpVdesWsqtHV0xN7fcdddoZ2VOv/BF7z5zz0X6o+CVXz+yW98W2kes3LsKn92Vrc2E3HZdrFTyu/lEycGm3I7qibMH1msPouucqTdK2/3aj4fhdWfuOeDlTLq+SpumM3szlUnqp2fpG1jtdOThfAbsRyxqHySdyS4/fPvvw3W6shCmdQ6D/VgoNZ5bIX4WI6VfyapBzcsx2yUY5Adlms2yzVYzvwdr5zD6gMFKwpWdXuQD4OSlTpepY5rJ92h8sRTT5ngGgI6HAwJXr12rV175/wRI+rGhk5Tox6T38py2qjlHJYuV/ljPSGsyYT188L88Xxrc4Pyd7FTiourr7nGb8qxvtmRgwZFMkYWq8+Zqxxp9+rbvVRdqeV1v1IaY0o9X9UyXfWKy1Unqp2WpG1jtdOThfBZjq3VjrmYrQcDrnTwXHksshzLs1+j8MdyzEY5BnliuWazXIPlzN/xyjmsPlCwomAV2elVzQoWBmU142zFsDHHb5RI1Yo2qUSeyW+8m08lbN2IYbD8W7v8y2EyDTtYGxHr3bEtbxzu0pRjOdzQb+OUvZQFn68Ky6QedYJtY2EZCJvl7FmOlbdpOeVRD7/1YKAe+cx6nCzHbNRllmM2yjHY3rBcs1muwXLm73jlHFYfKFhRsKJgRQbqxkAzN+BhjWoz54lpj3dDhZ1Y/vFtRa4KbUV2Cu3RrHywHLNRjs3KXyOmm3UiG3WC5ZiNciynjSAD2WCA5chyLKcdoN/q8sP6WV37kt/msm9YfaBgRbGibmJFGJRsXJqrcWnV8iK/rc0py7+1y7+cdo/sZIMdlmM2yrGcuky/hQywThTao1n5YDlmoxzL4Y8MZIMBliPLsZx2gH6ryw/rZ3XtS36by75h9YGCFQWruglWvfr0MfhjY9JcjQnLyysv8tva3LL8W7v8y2kHyU422GE5ZqMcy6nL9FvIAOtEoT2alQ+WYzbKsRz+yEA2GGA5shzLaQfot7r8sH5W177kt7nsG1YfKFhRsKJgRAbIABkgA2SADJABMkAGyAAZIANkgAyQATJABsgAGSADZIAMkIG6MkDBigDWFUAq382lfLO8WF5kgAyQATJABsgAGSADZIAMkAEyQAbIABkgA2SADJABMlANBihYUbCiYEUGyAAZIANkgAyQATJABsgAGSADZIAMkAEyQAbIABkgA2SADJCBujJAwYoA1hXAaqiwDJPqPhkgA2SADJABMkAGyAAZIANkgAyQATJABsgAGSADZIAMkIHmYoCCFQUrClZkgAyQATJABsgAGSADZIAMkAEyQAbIABkgA2SADJABMkAGyAAZqCsDFKwIYF0BpMLdXAo3y4vlRQbIABkgA2SADJABMkAGyAAZIANkgAyQATJABsgAGSAD1WCAghUFKwpWZIAMkAEyQAbIABkgA2SADJABMkAGyAAZIANkgAyQATJABsgAGagrAxSsCGBdAayGCsswqe6TATJABsgAGSADZIAMkAEyQAbIABkgA2SADJABMkAGyAAZaC4GKFhRsKJgRQbIABkgA2SADJABMkAGyAAZIANkgAyQATJABsgAGSADZIAMkIG6MkDBigDWFUAq3M2lcLO8WF5kgAyQATJABsgAGSADZIAMkAEyQAbIABkgA2SADJABMlANBv6vR6/eplH+dtttN4O/Hr168Y82IANkgAyQATJABsgAGSADZIAMkAEyQAbIABkgA2SADJABMkAGyECLMEDBqkUKmiIgRVAyQAbIABkgA2SADJABMkAGyAAZIANkgAyQATJABsgAGSADZKBRGfi/f/zjH6ZR/mSEVaOkh+loHDZYFiwLMkAGyAAZIANkgAyQATJABsgAGSADZIAMkAEyQAbIABkgA9llgIJVAwl2rGjZrWgsW5YtGSADZIAMkAEyQAbIABkgA2SADJABMkAGyAAZIANkgAyQgXAGKFhRsGqYEXasqOEVlbahbcgAGSADZIAMkAEyQAbIABkgA2SADJABMkAGyAAZIANkIMsMULCiYEXBigyQATJABsgAGSADZIAMkAEyQAbIABkgA2SADJABMkAGyAAZIAN1ZYCCFQGsK4BZVoOZN37tQAbIABkgA2SADJABMkAGyAAZIANkgAyQATJABsgAGSADZCAeAxSsKFhRsCIDZIAMkAEyQAbIABkgA2SADJABMkAGyAAZIANkgAyQATJABshAXRmgYEUA6wogleV4yjLtRDuRATJABsgAGSADZIAMkAEyQAbIABkgA2SADJABMkAGyECWGaBgRcGKghUZIANkgAyQATJABsgAGSADZIAMkAEyQAbIABkgA2SADJABMkAG6soABSsCWFcAs6wGM2/82oEMkAEyQAbIABkgA2SADJABMkAGyAAZIANkgAyQATJABshAPAYoWFGwomBFBsgAGSADZIAMkAEyQAbIABkgA2SADJABMkAGyAAZIANkgAyQgboyQMGKANYVQCrL8ZRl2ol2IgNkgAyQATJABsgAGSADZIAMkAEyQAbIABkgA2SADJCBLDNAwYqCVcUEqy233NLsvPPO9q+SlWbXXXc1++23nx+2xIH4ouIRd8H91ltvHelv2223tXEF3cl5hBcVr762ww472LCw1+eDx1tttZXZZZddTI8ePczmm28e6VanQ+dtp512CvXXqVMn3344Dsavf++4447W7fbbbx/pTvvhcW1vlI8//riZM2eOOfbYY6taRtttt5154YUXzEcffWTOOOOMqsaVlKE4Nthtt93M4MGD7R+Ok8ZRaffDhg0zl1xyienTp0/d01LpvEWFd9BBB9l8H3/88S2V7yib8Fpt28xGsTfbALYBjcJio6SDdSIbdYLlmI1yLKddIANkoBx+WslvtfrMGsmGcfOIPrCjjz7aXHDBBebcc881hx9+uPnnP/9Z8n0xrT+XjdKGldafKw1xz7GdZTsbl5WsuKNgRcGq5A0hDuyHHHKIef31181XX31l/w499NCKhHvMMcf4YUrYsv/Pf/5jZs+ebcaOHVsk8kT5++KLL2wn/JQpU0znzp2L0vnss8/aOB944IGCawsWLPDTMmDAgIJrLhtBpPrss898P0EBTPu55pprfHenn356ZNiSPrGD3r///vvm3//+d5GQgQcAcTd9+vTQ8Pv27Wu+/PJL6/bll18OdafTzuPad7xKWY4aNaqqZXTiiSf63MyfP7+qcSXlKMoGEEbeffddP+3idsmSJeaEE06oSz4gukNke+ihh4wWgydOnGgefvhhM2PGDIMH3zA7wD/coX5DtBZ3V155pT1//vnn++fkmt6jzYL/Bx98sMBd79697Xlcg1it/YQdS5pHjBgRy323bt3Mo48+av9wHBYuz9e+LYlj8y222MLsvffeLSe0xrFNEjdsA9gGJOGlFdyyTmSjTrAcs1GO5bQ5ZIAMlMPBYAwCAAAgAElEQVRPK/mtVp9ZI9kwbh4HDhxo3nnnnaL39Zdeesnsu+++oe+Laf25bJQ2rLT+XGmIe47tLNvZuKxkyR0FKwpWoTeDOKDjC4jLLrvMQASSTmHs8XVEHP+l3Bx33HEF4eo49PHdd99dIFrF9YfRI8FO2hdffNHGiY5hnT4tyN17770F17Q7Ob7ooosK0q47mcUN9hhRhY50yc/TTz8dGbakT9y79hCdzj77bD+cbbbZxrz11lt+HBjxoNOA480228zMmzfPd3PyyScXuQn64e/6dDBLmVdbsMKopI8//tjW70mTJjUUD2E2gIgi18L255xzTk3zgnYSQjEEq1NPPbUgbojVOI+/kSNHFlzT9Qt1Vtx16dLFd3f99dfb8xdffLF/TvuTY3y9Jv7lHPZ4IZDzGOWpr4UdS5pHjx4dyz3CQbkgnquvvjq2n7D4eb627Y6+n+JlifZPbn+2AWwDWG8K6w3rRDbqBMsxG+VYTvtEBshAOfy0il/Uk2r2mTWCHZPkEe+1+sPu4Dv7e++9Z3bfffeid460/lz2SRtWWn+uNMQ9x3aW7WxcVrLmjoIVBauiG0FcyDFV36xZs5ydw9UQrDCC4MADD7R/gwYNMpdeeqn58MMP/fjxW9KuO9gwukj8HXXUUbbjGCOR5MaIkQ3iD3sRhIKClZwXf6U6d1977TU/DvgJE6xco8GiRiFIOiC2Sb5w48RQaow4k/Rhr8PB9HFy7fnnny8abg2BS64/9thjBTbR9uFxYadLPewh5VRtwQp5A7daIKlHfl1xumyA6QcwfSGuQWgbPny4wbSGGNGE9uPzzz+31xYuXFhTvjG6CWIN6pUeXYV8ifgjolHY6FTUcXGjy6NZBKvu3bv76d9///1ran8XPzwXvx3DqESpbxiFS9vFt53Yim3APwzbgOTcCD9Z3LNOZKNOsByzUY7ltDFkgAyUw08r+K1Fn1m97Zg0j3PnzvXfLW688Uazxx572CVAMBOIvHPceuutRe8caf257JM2rLT+XGmIe47tLNvZuKxkzR0FKwpWRTeCuJBjTRu5oUA8gWAiv6shWLk6ynr27Gk+/fRTG68emaQFK5c/dBrLlGEYeaTzLIJQKcEKX8lof/r4yCOP9G0hNgkTrO65554it5jmUIenj8PSJ24w6kHiDE4viGkO5ZqeQgzTF37wwQf2Gr522XPPPUPjl3i4r1znE4aV9+/f32lzTMUF4QUPKiJUSBlGCVZdu3Y1mNIP4m7YdJQID+GLsAkRFn5OOeUUI2vEoZMRbiQMcIzf+HMxINOHaT/aHb4QwlQBGGmE+quvhR0jrDg20B3rQ4cOLQr7pptu8vnXX21BzIUgFBZ/uefRVoSNLgoKVhi9CZEtGGezC1bIz80332ztcN555xXlL5hf/vbaF4zA3WeffQx4xnpseKHTttH1EaNk9TUco75JfcVIW329VNhwiykj8TGItDmnnXaaDQ/tiw5LjtO0O1h/EXUXU3nqeon84P6NvP/rX/8ypdaClDQ04p5tgMcz24DKPTc0IudJ0sQ6kY06wXLMRjkmqbtBt2SADASZ4O/Ce30t+szqbfMkecSzvbxXoF9Lv7+gb0I+LMcMTvqdOK0/l23ShpXWnysNSc6xnWU7m4SXLLmlYEXBytnpFAdyuTFde+21plOnTgad7nLzqZVghXTecccdNl6saSWd7KUEK/ibOnWqn149WipMEJLzkkfMuYsOP5et7rvvPj9sce8SrHATRrrhBl+XPPPMM/Z40aJFznARl6QjKKhJOtCpJ3FOmzatIByZ4g3XMRJFOh3RiSR+LrnkkgI/Ei73hQ+f5doD6xWdeeaZ5pVXXrG2v+222wrsjhFvehpHKTM9Es4lWGEUIQRkKU/swdgTTzxhNOdIP6Znw3UMu8e0mtoPvpRCZ7ecu/DCC236MPWcnIPwFLQDOtXluhZM0UZgNKOMgBI3yCPE7mA4+J3UBuiYhwCEP9d6UDgv8aIuSJzypdScOXPMkCFDikYfirs0ewh4+FoMghU65YNhiGB1//33+yOQsEZU0F0WBKuzzjrL5vH2228vyl8wv/z9D8tLsL6AX6wn16NHD2tDXR9d9119X0Z9EruCxVJhIw6pL8E9eJawsE/T7uCjES0iIw68nOKlDGI2RgIH4508eXJBvDoNjXrMNiB/72QbkLdFo/Jai3SxTuQ5aOY6wXLMRjmWU+fJABkoh59W8VuLPrN62zJJHocNG+Y/32PK+mDa0ecgz/+6ryGtv2D4+J02rLT+XGmIe47tLNvZuKxk0R0FKwpWRTeJuKCjwxcjicS97hhzdZyJuyT7OMITRBm5qckIlDj+dEeZ/nI7TBCS8/LVB+LEyIxgfiAKyNRjMmoJbl2ClRYfDjvsMDttmeRF36B1HJKOMMEK5SJhQJTTfnGs1/iBSIJ4xD3EEwgLQT/8nb9RlmuLnXfe2Vx++eX+10Nie/AoYWNUFNYhk2th+6BghfVlli1bFurv2Wef9UdKIS4t4Og4wC9GPUCQlfNYkw1+MOJCzsG/pFn2YArXkX4tkEGkEH+ufXDNtLQ2kHQE9+gAl1GVWI9OXxehWNL15ptv2vWkOnfuXOBO+4l7LAukooMfglrQnwhWEB7wgA53+MOIEu02C4IV2jjJnx5Jo/PJY6+tCU4Vu3jxYv++Ak4hMqOt1vXR1d7r+5zYPG7YuJe42hOMwoXALWVVqXZH6h/28iGHPifHwXXgJB2NumcbkL9/sg3I26JRea1Fulgn8hw0c51gOWajHMup82SADJTDT6v4rUWfWb1tmSSP+DBTnunlY3Odfrwvy3XM7CDX0voT/3qfNqy0/nTcSY/ZzrKdTcpMltxTsKJg5d8EygW7HoIVbnKyVtSCBQv8vJQSrPbdd1+/Iw4ClM57mCAk5yGQobMQN1LXWk/jxo3zb7ITJkzwj12CFUZ0IByM1sJwaIgE+MIc54KjoySNkg6XYAV76A5K19RbGDXz3HPP+emSKRURZ9j6ORI39/kbZlJb4GEDczEHO2IxlSVGO8hoPXCi12aDKAUu8CAoI6JQVvjTghU6r8GRXEPZYwQfphDTo6ew5pGkXQtWsuYTRlbJ1GEuwQp+McID8SA+CQt7pEFGbTz66KP+NaRF0oXRTLAFRkBhNJZ0iMMuInCltYFOC8LC+nUQgWB3sSni0UI7/GCKUAhGELIkndjDJjrMNMcYeQKRBm1F2KgvXEf8qL9IK36jfqMsJM4sCFYQa0Wwwvp7kjfui9uVu+66y7IIXuUDENTL6dOn+4yi/sB2Uh9xX0L7LvZE/ZUPLDDCUs4nCRt+0D5JvcBUGBIO9uW2O2hDsKYZvh7EBxxaqIfAvtdee9lrug255ZZbCtKg09OIx2wD8nyzDcjbohFZrVWaWCfyHDRznWA5ZqMcy6n3ZIAMlMNPq/qtRp9Zo9kyKo+Y/h7vFXhvcaUb/QDy3nHFFVf4btL6c8WRNqy0/lxpiHuO7Szb2bisZNEdBSsKVv5NoFzAo25MacOOEp7wtbhek+mGG27w86L9oYMPo0PwN378+KJphnBOpy9MEJLzU6ZMsSNk5EaKNX7EPzoIRTR48sknDUaNiLugYKWnW4IQIWGgox9+0PHv+upE0oGp1CRfI0eONBjBImKB+Nfz/kr42KPTUXcMwr0e4aPd8jh/k0xqC4iQ6FQGC8IB9hAJYW8Ip8EwIRqKWy0uiTu95pkWrPScysE10NCpLNNrgR8JSwtW0vkt17APE6yw/pmkUY8ERBhyXo+YgviC8xjhBPFNxzFkyBDfD9awwbW0NtDhYt0bSYvey0gx7VaO0dmPUZPo3Bc/ci3tHnaASKNHpOiw9AgrnMeIGbQB8IO2RgSILAhWqA8iWAVFQ20THudFKAhO+t6BugzbgVM5r+ujiFuwIdwJx/oLRRG44oSNcKIEq3LbHZ1exCUfcSDdsrae8PDSSy/Z/MybN6+gDZHrjbpnG5C/h7INyNuiUXmtRbpYJ/IcNHOdYDlmoxzLqfNkgAyUw0+r+q1Gn1mj2TIqj9KXFfU8Lx+aQiCSvKX1J/71Pm1Yaf3puJMes51lO5uUmSy5p2BFwcq/CZQLdtSNKW3YWnhCB9bChQvtn3w1Lp1xb7/9ttlzzz39vAT9ibvgHuvGBEUhuREFRzDJeXQiY7SLjITSYpOOFx3xuMFInNK5KLaAUCbX8IW5nB8+fLh/HmHIedlLOsSvaw/7BKcUE/+yhxgifpcsWWJHmcg17vM3xnJsIfaV/RtvvGFH0ugpKIPh687nXr16FZU/OnglPC1Y6eklL730UnPSSScV/OnRQzLSRwQrjOJAR3gwLWGCFdIv014iDPEn0wFCOJU4cE2mxoRIGkwXOtIlPxhmD/dpbSDpwL5///52LS9ZI0ziwF6nWfvRx7C9a4o17SbO8TnnnGNFGgjnLvdBwQpu0AaIsCPTn2VBsELeZK2uE0880WkPl41a8ZweSYWPEzBaF3Vf1yuxi66PmlkJ45NPPvHFLfiR86gLpcKG+yjBqpx2B1MLYmSV5AN7jJ5CunBP1+dxLF81QnwPXmvk32wDCu+nbAMK7dHI7FYrbawThQw0a51gOWajHMup52SADJTDT6v6rUafWaPZMiqPMtMPZlIIS7d8hK0/+EzrzxVH2rDS+nOlIe45trNsZ+OykkV3FKwoWIXeKJICH3VjShqWuNcCkO5w1scQsTBtkPjBXvvDFxqLFi2yf3Lzg3/dsaf9iiAUJVjBvYzuWrp0qS96oZMZYWMkCTriogQrGYkF9/fdd5//N3PmTL8DP5gGxCvpgz/JlxYjcD5KEJG8YqQL3OIvOMpM3HBfeINMag+xL/azZ8+OVS7SmQxBFIJRMM4dd9zRLzctWN14443+eR2v61hGdolgFTYkP0ywQpqEf+lYhuAl9UuP1sN0N640uM4hTISd1gZBW8lvsA5hTKYPRdyuRV7FfSX3KCO0C9ddd11RWSIel2AFu6N9gj+MtsL6W1kRrDASFPnC4ryVtHPWwsJUnlhLLVhPMIXmjBkzLBM6z1IfZVpAMCQfdsDm2m3SsKMEq0q3OzfffLPNM+7rOs04lqkMm02wYhtQeB9lG1BojyDnrfCbdaKQgWatEyzHbJRjOW0OGSAD5fDTqn6r0WfWaLaMyqMsVYD3FFe6MUOQvP9g3W9xk9af+Nf7tGGl9afjTnrMdpbtbFJmsuSeghUFK/8mUC7YUTemtGFr4QlfV6PBlr9hw4YVTRkk8Wh/es0NPdUYOq+DX3fDvwhCQbFIzmOEFdzp6ZYwCgJTA8rNVQSgMMEKiyyL21L74BRqko5g+kQsQ3gYoSG2CNt37tzZT8Po0aNLug8Lh+cLb6LaHq+++qpvY5QLRjqggxeLiWp3+hh8CROu0RQY3SfXURfELwQOOY91sTCtnf6TtOAcwoC/cgQrTEkm8R188MHmmGOO8X/369fPTxfEU3GHvU6THOM8pgW45JJLrL+0NhBbhO2xdpakxTXdovbXp08fo6cZ1deSHGPtHdTNsDXpXIIVwsf6Vajj8AuBAiPGcIy/Ll26+PYV/3qOb1f60F7Cr15bDO4gXkq4soaYy78+J3GmaTfQjiM+tI06TB4XtyMoZ4xgQn3GKEhhF3t8KAEhU+ym73kYiaXvT7g3izvZJwk7SrCqdLuTRcGKbUAh22wDCu0hdbKV9qwThQw0a51gOWajHMtpe8gAGSiHn1b1W40+s0azZVQe9SxDW2+9ddE7Ct5N5Z3nlFNO8a+n9eeyTdqw0vpzpSHuObazbGfjspJFdxSsKFj5N4FyAY+6MaUNW3fCaeGpVHhR/uRLdNwIL7jggqL8hwlCcl4EK6RBRmxg3Q1MDYgwMTIGnc24HiZYybRHcP/www9b4QCdwPKHUStyox4xYkRBGiUdQcFKd8Zj9JZL7NB2o2BVePPTtqnkMURSjKALrhkGsQacyhpFEidGnkjZ66ki5TpGBsl1LVidfvrp/nnXVILiX+/BG8JKM8IKI6pkBMfkyZPNrbfeasPCaD8dB46FZ3yVFLzm+p3WBhdffLEVefQ0nTp8pFlshw4ifQ3H1VjDCg/aEGjuvPPOovgQp4g/SHswPRABRUyCfznWgtW5555rzz/44IMGa2EEw5DfV111lXUXHFlaa8FK1ufCArKSNu5Lt0WYuhYisV7jCS9NYjuwDRELfKOMIZDiGPeCYBsjfmRfKuwowarS7U4WBSu2AYV8sw0otIfUw1bas04UMtCsdYLlmI1yLKftIQNkoBx+WtVvNfrMGs2WUXnU60y7PmC87LLL/Pd13f+X1p/LNmnDSuvPlYa459jOsp2Ny0oW3VGwomDld3iVC3jUjSlt2FHCU1SYUf7QmS/rT6GDT3f+IswwQUjOa8Hqoosu8m+o0hEOcULS5hKsICTJ1Gnz58/33Yof7NGBKG5eeOGFAjeSjqBgBX933HGHn56xY8cW+NPh45iCVeHNL2ifSv/GNFwQJ6RchResIYORKjKNIx7M5FqwjNEpjZFIcl0LVvvss49/HoJoMP14wMKIIQgXcq0cwQphyEioxYsX+/kaN26cH77Eg/UZkGbkPTi6bPvtt7cd7EgbRhHBT1ob6OnJXKLd8ccf79tIC0SwPWwZnIIN+ZI8pN1jLTkITY888ohziscowQpxYl0vEapkr9ssjGaT81gfzJVOiNkQxuHurLPOKnBTS8EKZS1pxRSHrrTynNcu4WUNwivuq9omekpQrBmnr8loJwjJsm7clVdeWeAG7pOGrQUrtCM6zkq3O1kUrNgG5O+1bAPyttD1qNWOWSfyHDRznWA5ZqMcy2l/yAAZKIefVvVbjT6zRrNlVB4xi4n0ZWB5C/RvSPoxs9DHH39sr2N2Cb0GfFp/mEEEfQz6A760YaX1J/lLs2c7y3Y2DTdZ8UPBioKVf4MoF+qoG1PasKOEp6gwS/nDGjtyowyOxggThOS8Fqzwovnpp5/6YSHMAQMG+DZ1CVb6y4wLL7zQdxvMjx6FpTv5JR1BMQP+IYrI1FG42Xft2jU0fApW+Ztf0PbV/I0HL5R7cN0x6XzGQxse3oRPnMeDCkZXoMzlPPZasMKaNQsWLPCvgx+MYjnwwAPNhAkTzOeff26v6bVhyhWstLAk6QKDQftp5jHiAyOoDjnkEDuNIARZ8Sud4WltgDAlLKxdB3EGD5boVB85cqRfN+BGT6emR63gGuoYRo7oB+hgnuL+1mtPYdrQoL9SghXm8ZbpgkTs0YIV6jFGV8k15Bnx4KEcD+gYpQVu5DoEKp0GLVhhKjnYxfWHtk78SZrRdrrc4lyPHj189+KvlC3EXavv8cGCjF5Ee47111CW3bp180cygtPgOmAHHHCAz7/UA/Cv7ZkmbHAh4UEwHzx4sBEeKt3uZFGwKsW91CctousyYxtQn3u1LgMeV7YMWCfy9ixli0Zmr1Ta2bbly7mRy7GctJGBfBmXskU5dqbfvJ2zYItq9Jk1ml1K5VGv2Y6PvbG8APzMmjXLf+cIzgqCPCb1hz406QORtbLFVknDKtef+E+6L9W28F6brfYhKR9Zd0/BioJVQWdWOcCXujGlCbuU8BQWZil/6PwToQkdgrqTPUwQkvNasEL8WljSYgCuuQSrxx57zN6IMUUc0hGWB70GiRbVJB0uwQphXXvttf6Nfvr06aHhU7Cq780NggJGLsyePduWlwhWKEN0MsvXRdJRLHvhFr+1YAV/6NDG9H7iNrgH61pQxQMO3KSZElC4feWVV/z48JAp54N7rLEUTI/+HRyBlNYGMspEhx08Dq69NHfuXJs21Cltn2Ae0vzG3NzIGwQjTOcYDKPUQybcQ4gTwQl7LVjhOsQhPOxrN8FjTDmENiUYvxasgn70bwh+4lfSrK+7joPr72GtP7hDWqOmL5R4WnmPEbJBbvVvCN4iGmk7adH6uf9v77zbLimqtf9+EkTPUaICgiAiA0iSIAw4ICAICCNKDjNkHAExEARBchAli+QBBEGGqMLBQXLwnK/S7/Xrue6eteup7t27936ene4/9lW9u2tVraq6K627wl/+UpVZ9DNo2OxAfP/993v0oRwV5ijbnVkkrNwGbOxr3QZszAvVn3l0XSc24mCa64TLcTbKcZg2yBgwBobBz7zKLobNbNLysl8aly1bVrC4NM5t4jOLd3X6TEzboHLcBaxwOellmLAkO6gOkuvqup11O9sVO7MgZ8LKhFVPwz0MqOPuBlZ6DxOWZGNnR+eg9/3cNnKXX3551YFFA7Z2W6T37eh9esRS3GWS3onFSnQ6SYgCjgLESKujmrjDqCkdEBoiHyIRID1S/RQWnbuOnYP0+MIXvpCNh84PvdDvzDPPzPpRmHY3dpSLkRfUl/S+quXLl5c7YyCodP8VZCVHwMl4zP1FqT7sJrr11luLN998s8I3ZQzeWKET/eviUAaF8b2eweAHH3xQhsOAT++jS93RQDDd8RH98YzfJ598slzppDRxLCdHlLHzI/XfNQ/YkUJe6ehP1UF2h0Bmp/FoZ1H6flT/aTMw8F900UUL4ta39K66NG6OHyUMCO/NNttsQTiQBoQVd1vhn6MAIdm5Sy0Nk/8Qg/jr94v6Sed+MimhApmOTEq05vTyu00KDJnaiRnrC+R2Sloqv2K/lvZH8oM7aNjs1hS5TvuT9l+janeuvvrqsj159tlnF+BVO6NjfxjTNMnPqjNuA9wGTDJOl1I314kN48pp7xddjrNRjsPUfWPAGBgGP/Mouxg2s0nLxzZpxP6hhdiyJchmwby2Lk2DyO2www7lfb7MXeICcIU9SFiSwe0qF8MY5NntrNvZQfAyS35NWJmwqu0MZgnoTsuGRt75MH35AJHDYCvdrdKmLLfbbrty11WODGojv1h+IFxIE/q1iaNrHkASc5cVR9SN4ni/Nrrm/HCcI0QNO7jQKednVO8gxRnkcxQkaa8jrEcVX9twwK8ILt1V1lZ23v1xjCi7cakz/fJCx1tw/AX3XfXzP0jYhEXdBcNNuJrUdqdfXizmd7cBm5R9mNuA6RuDLFa9cJ2YjTrhcpyNchymnhsDxsAw+LHsfI8LmLdy1zInnHASCXP2NpgYRI7jy5vmLYOEFXXrKhfDaPvsdtbtbFuszJo/E1YmrFp1CrMGfKdnvgdHLn+X/1JigN2Md911V0nYsFNlKeOelLhOOOGEMv0cocrEYVL0mhU9mOBpxySrE6+77jrn8QSN79wGbFK4DXC/G9tb14nZqBMux9kox1g3B302BoyBQTFj/x4PGAODYcDtrNvZea0zJqwmyKAxryB0ugfrsJxfzi9jYPowsGLFipKwuf3227PHH85ymW611VbVUYUcoTDLaR1H2lauXFkdywlZxbEXTUdpjENHx7lJ4TbgnrINdBswff3XYtVf14nZqBMux9kox2HquTFgDAyDH8t6XGAM9MeA21m3s/NYT0xYmbCy8dAYMAaMAWNgkTHAsQHsgOH+IY7rm6cBB3cKku54V+A8pX+x03ryySeX9xZ+9NFHBfe0cbTGYsfp8PtPLNM8chvgNiDFxLz/d52YjTrhcpyNchymPTIGjIFh8GPZwceUzrP5yzO3s25n57Hem7BaZCPlPILKaZ6/DtRl7jI3BowBY2A8GGACwx1tm266qYkqj+mMAWPAGDAGjAFjwBgwBowBY8AYMAaMAWNgqjFgwsoAnmoA20A6HgOp8935bgwYA8aAMWAMGAPGgDFgDBgDxoAxYAwYA8aAMWAMGAPGgDEwSgyYsDJhZcLKGDAGjAFjwBgwBowBY8AYMAaMAWPAGDAGjAFjwBgwBowBY8AYMAaMgbFiwISVAThWAI6SfXVYZvONAWPAGDAGjAFjwBgwBowBY8AYMAaMAWPAGDAGjAFjwBgwBoyB6cSACSsTViasjAFjwBgwBowBY8AYMAaMAWPAGDAGjAFjwBgwBowBY8AYMAaMAWPAGBgrBkxYGYBjBaCZ7ulkul1uLjdjwBgwBowBY8AYMAaMAWPAGDAGjAFjwBgwBowBY8AYMAaMgVFiwISVCSsTVsaAMWAMGAPGgDFgDBgDxoAxYAwYA8aAMWAMGAPGgDFgDBgDxoAxYAyMFQMmrAzAsQJwlOyrwzKbbwwYA8aAMWAMGAPGgDFgDBgDxoAxYAwYA8aAMWAMGAPGgDFgDEwnBkxYmbAyYWUMGAPGgDFgDBgDxoAxYAwYA8aAMWAMGAPGgDFgDBgDxoAxYAwYA8bAWDFgwsoAHCsAzXRPJ9PtcnO5GQPGgDFgDBgDxoAxYAwYA8aAMWAMGAPGgDFgDBgDxoAxYAyMEgMmrExYmbAyBowBY8AYMAaMAWPAGDAGjAFjwBgwBowBY8AYMAaMAWPAGDAGjAFjYKwYMGFlAI4VgKNkXx2W2XxjwBgwBowBY8AYMAaMAWPAGDAGjAFjwBgwBowBY8AYMAaMAWNgOjFgwsqElQkrY8AYMAaMAWPAGDAGjAFjwBgwBowBY8AYMAaMAWPAGDAGjAFjwBgwBsaKARNWBuBYAWimezqZbpeby80YMAaMAWPAGDAGjAFjwBgwBowBY8AYMAaMAWPAGDAGjAFjYJQYMGFlwsqElTFgDBgDxoAxYAwYA8aAMWAMGAPGgDFgDBgDxoAxYAwYA8aAMWAMGANjxYAJKwNwrAAcJfvqsMzmGwPGgDFgDBgDxoAxYAwYA8aAMWAMGAPGgDFgDBgDxoAxYAwYA9OJARNWJqxMWBkDxoAxYAwYA8aAMWAMGAPGgDFgDBgDxoAxYAwYA8aAMWAMGAPGgDEwVgyYsDIAhwLgDjvsUBx55JHlj+fFYK632267Iv1ts802xaabbtoqvlQ293/LLbfsCSvnh3df+tKXevyl6d18881LXaO/L3/5y+W7LbbYolGWsHJ+FWadTnqf5ofeR3eQfEvT5v/TuSrB5TY55bZy5criwgsvLHbbbW9jWkwAACAASURBVLe+bcEsldu3v/3tMt1HH330XKV7lsrQaenejmy//fbFnnvuuWAc89///d+N9SH23fE5ji9y5aIxQ+pP7wkrJ5d7pzEJbu673n3xi18svvrVrxa77LJL8fnPf77Rb9QjpovxicJL3f/6r/+q8o/n9Hv8/5WvfKX0u/XWWzf6izJ+7o7vLnnnOtGb37NUJ2h3VK/7tRtdsGOZXuw4P5wfxsD0YYDxn9rJWS2/tmlk/Hj44YcXZ511VnH66acXBx98cCsbX1e5XH53DaurXE6Htu9sS7AtoS1WZsWfCSsTVp0m9Bge33zzzeI///lPz+/tt98ujjnmmE5h5irVEUcc0RN+jO+zzz4r/v73vxdXX311rQG4ST6G9eqrr1Y6N8l8+umnxfPPP19cc801RY6AevbZZ0t9//jHP5bhfe5znyvefffd8t3atWurOHJpxQjzzjvvlH6ffPLJyq/CjPrmnn/4wx9WMk1paJNvOf38bvoGxC6zySkzDNZ/+tOfinvvvbeIhtTLLrusuP/++4ubbrqpYOBbV2bI4+++++4rMG7J3xVXXFG+P/PMM6t3+hbdQw45pPR3zz339PhbtmxZ+Z6wMfRGmbpn6Xz22We38r/jjjsWDz74YPnjuS5cv58cvI6yLDBO77777q3xNcq4xx1WU1/88ccfF0888URx8cUXLyB5muQGHYcoD1566aVqPEV7oPd1Lsbmjz76qJJJCbAo9+tf/7ry9+Mf/7gx7KYxzb/+9a+yjTvqqKN6wsCIoXHP9ddf3/Mt6rH33nsXjHHw++KLL9b6izJ+Xtp2pwnbrhO9cypwPE11goVzTz/9dFVXP/nkE9dB2xmmAgPzPE5xH7i0feD+++9fvPbaa1U7ecABB0xFHRkEJ23T+N3vfrf45z//WeWFxnkvvPBC8a1vfas2X7rK5dLQNayucjkd2r6zLcG2hLZYmSV/Jqw8kKztDOqAjpFSHUqde9pppw0cbi6+73//+33jQgcmRTmDbVv5119/vdK3rQzEVWrg/etf/1rqi1FZ6YG8Uj7ttNNO1Xt9l8tONflbs2ZN5U9h6lud+6Mf/aiSaZuGunyTTnaXdhDr/J7N/MaIg5EVwurEE0+s6inljaGX9/xWr17d8y3igV1K8hd3hELY8/7cc8+tlSUcVq9JPobLhEDv2SERv9U9S+fzzz+/lX/Cod8gnl/+8petZeri9/vpqifqw1KydB7KsW1ffOedd/aQVm3l2o5DyOtoIPn973/ftx6uWrWqGpMw7ohEeSw7dlSxWEljk8cee6wxbOFB/nMupNOpp55ahbPZZpuVC5Tkl/Yw6sAzC4Sisfz4449f4CeV8f+lb0vaYtt1ope8moY6cd5551XtgOqq69jS1zHn+eB5rn5pHscpxsvgeOmSZ8wFL7nkkoJFR2ofcdlR1CW8SZQZJI2M4+KiqJgnPL/11lvF1772tQV501Uul19dw+oql9Oh7TvbEmxLaIuVWfNnwsqE1YKOoAnkbO/VjqH33nuvgCTZaqutyh0DEEYQIHQy69atGyjcujjjxJatwqxC4feTn/ykuPnmm4s33nijp9NPjcF18gpH7q677lrpG2VY1bvvvvuWv8MOO6w0OrPaUZ0quyKi7hrwRsIqhsdxYNF/fL7jjjuqcL/xjW9U/hQmrvTNuRh0FF6Ms0u+KRy7SzOIdT7Pdj6zmwGy5qGHHurZXUW5i/wRaUTdzuGBwbH8TCNhRZsm/ffaa69sGnPp9rvprxuslKTPjP3ivJRr7IsZI2k8sWLFiuKiiy4q/v3vf1f9Pv+VL1FuFOMQwtVYQuOXfgT1K6+8UumGTB1hldsx07STUnpAtik/aN8Yq7DjTPrhxnDYdaVvzz333IIjYyC49J22Vnlpd7LakIht14kNZTMLdYLjQHPGR9e/yap/Lo98eczzOMWYyGNilPnCDr7HH3+8GqNorII7K4TVoGnk5CHlw3XXXVewqJsdRJDGeo+tLy2HrnJpOPzvGlZXuZwObd/ZlrBJYVvC4rdVbfG4lP5MWJmwWtARNAGQ4/7UicQj6CRzww03VN9zqyLkr60bJ7Yc9ZLKsdrg7rvvruKETIvHbfWTT8Pjfz8ZwtdxiBxJGMPQpDMa5jjqb/369aWOdUfUQDZ98MEHpZ94HCBh58KMceae+6WhX77lwvS74ToJjH3sojvuuOMKjmEjPyl3jsr6+te/3oMj5/VweT1p+ceKOsia3O6ilLBi5wOLANI0TDthRXp+97vflflwxhlnLEhfml7/31gHaK/p/1ggAqHZdDQb+Sb/nHOOHP/r8vOb3/xm2QbpOEraIxZ+sCOv372U7DCGeMH/fvvtt4DQ4Eg5wtNxH+x+4T+/On1m7X2/vpj8//DDD8u+P+5M6ic36DiEfNVYQmM42qW6/D700EOrcZX81xFWd9111wK/HHNYF7b0iOOk6Jedm4ozPV4w7liPu+rBmo5UxmjuPnVj+xHzdhKe+2HbdWJh2U1DnXj00UfLesvugVhPJwFz1mEhpkadJxp3eJyy+Hk96rJzeItfZiy01riGxTos0NH/WSGsBkkjcxOlnzEhO+SFQxZlanE4/UmcE3eVU9jR7RpWV7kYd5dn2xI21FPbEha/veqCz8WUMWFlwqrqINoADUMTBlZ+MnBFOd6rA+pn7Ipydc/9JrbIsetLEyXipsNUeG3k5VduG5nf/OY3VTrjKuU6Q0z0v8cee1T6KU7IP+VbPAaH73VhSjbntklDU77lwvS7bh0EhjRWe2v3ocr5gQceKOsR//nm/O2Wv5Oeb1/4whfK1WIQVrn7/URY/eEPf6h2IHFHVJquWSCsTjnllDKNt95664L0pen1/00KFjuwujDuwqG9YALH7l7a8JhP/CdvtQtabQ3/eZ/6h4CQn1/96lfVQgy9w73qqqt6JpLEx+QRsiH645l2jKMpNfG87bbbFviRDOfbR91n9blNX6x84v4elVEbuTiuaDMO0VhCZQCRyHF+ubyPC4HkP0dYgQX0xg8rZFlww3O8FzQNX3rUEVb0mYrzt7/9bY9+jCvZ3c93cL3tttuW35nASqZpJ3uqi/8vfb/bBtuuE73lMul14uSTT67qH/dqUgdVH13Hesty1vLD45TZLt9Zw+u40iMy58orryzH9tx/pDZy1girNmlkQZ3SzwK5tFzOOeec6nucL3SVS8Pnf9ewusrldGj7zraEje2sbQkb86ItfqbdnwkrE1YLOomuoGZVpHYecVdC13CiXJuJLf4x5qrjY2WfwmgrL/+4bWTiTjImkpKvM8Rw7I30+/nPf175l5yMfxh+4koSvteFKdmc2yYNyNXlWy5Mvxu8g2CA8cgjj1RlLwykLgZo5+/g+TsNeaYLUiGscjtLRFhh6GeArmPzvve97/VgYhYIq4MOOqhK3yh24E5D+XfVEdKHO1zStiL+5/g0hY//3E6X6J/deyKTkNtiiy0aw5dsuojimWeeqeTYGaydLfLPylHCh1BJj4jiP7+my5SVpllw2/TFkDLKOx332UZu0HGIxhJauUqcHLOX5jPklxZYxLLNEVbxGD7qN7uelJZoZIhxSI86wgpSSmGAoSjLc7xH9ZZbbimIR/7/9re/lcagVMb/J6d/bYNt14ne8prkOrHNNttUiyogqlnMaMKqt/xmtf3xOGU+ynlW8buU6aINZ+e64pxFwmqQNLIwU+M2LdRS3uAyX9b3k046qcq3rnIxbD13DaurnOLt4tqWsLGttS1hY150wdI0ypiwMmFVdQKDAhijBncrYGSNq8AhXWKnPGi40X+biS3+mSDJwIIxTWFEeVaQc7xM7rfzzjtnZdj2q7DkYmh7//33y44Uw4/e4zYZYl566aVShnu3ogyEl3THQBm/xTAhAXO68y7duRHTnUuD4qjLN323O1ynwJ0kGnCBDQxr5DmrqShPfTNhNVw+TzJOufsOEopddpR9qmskrBi005biH2Mu54HL/ywQVtttt11FWEHiK212F+I/ri7kKFmOAgQ/nGHO/T1qO9TXrl69unrHd9oaVj7jcvyI/ONP+Z0SVuxSoYwgE3/6059WMs8++2wlw8IUhcXiEGGafkY7u4hfceDO890Q/fpi6rzuimKMoHzrJ9dlHKLxCWQAl1lTjrm7nmLZX3rppVV55wirp556qvzObi2Mlxiv6c8IO90dpbRJjxxhRX5EIi53fChHT/3lL3+p9NKRisRZdweg4ra7sK1Z6jzph23Xid4ymvQ6od1w1L/ly5eXbZgJq94yXOo6tlTxeZwyH+W8VHiap3hmkbBKy68pjSygo89gLJrK8T+eABEXeneVy8XRNayucjkd2r6zLWFjW2tbwsa8aIufafdnwsqEVbajaAPseIwdnY5+q1at6hxmGm+/iW30L6MYhhO9j/LSL+fGI2SizPXXX1+QHn5r1qzpMRQSDu8UF26TIeaCCy6o8igaVeIKZS4vj+HFMHN66x2EV5SLaWgirJDJ5VsMy8/dO4Y///nPZZljyE3v1GC1jHYfmLDqnseTjs/jjz++JGlyZDS6R8KK/9xv9uCDD5Yy11xzTXX/0CwQVhi0tYNMRMukl9+49Lv//vurtoPL7KMeu+66a0kO0X5AivNN/jk+cMcdd+zxz38dK4g/hRUJK0ipuPsKP9r5S/slGXb+qd+hT9N7XC7DZcfOPvvs0/NefUyOoIjys/jc1BdDDMa7Xq699toq36LcqMYhGp/QrvzsZz+rypFyU95zRKDuHGN3MO2XyjslrMClvsX7+Wi/eA9uMLYrbLnSgztANb6CSE2Ps0Q+3XGuMBjXfPbZZ1X8xAfRpe92J7dPjdhOx6euE9NVJ1hAoTaAY2pV70xYTW79UxmNwtW4g7ba45T5KPNR4MZhbFI0kTmzkj9NadQ4kLtt69KreQsEkfx0lZN8dLuG1VUuxj3os20JG9tX2xI25sWgOJpW/yasTFhVncCgIP7Od75TrtzmCBZNWORihB00vJz/polt6l96YATRtygPKcDxNrkf56HmZJSenMudM6kxRp1YzjBXd6QHF60T/ttvv529T0Jh4ienO+/SIxhjulODgNIpN5dv+mZ3uE5h/fr1ZdnWkRUPP/xw+d2E1XD5PMk4Pe2000qSBqNzTs+UsMIPl1aL2DnxxBNLuVkgrEib7uo69thjs/mRy6N5fKdj2zjmr0366T/oI+raGt6rn1F4kbD6xS9+sSCeuLtGMuysJhz9IFzA60477bRAXjImrDbm17p16wp+Kl/l4z/+8Y+eRQ2xD5efnDvIOERjCQgrxiPaCRXJphjvD37wg0bCigU70mmvvfaqyh886D1hCAdypYf85FzyJz0WVfJyr7766ioe8L/11lsviEt+7U5OHxsxRtm7Tmxc7JarC3o3aXWCHbyUHfox1o3Ho5uwmpz6tphtn/oxj1Pmo7wXE0vzFnYTmTMredGURu2Sjyc4pOmGCKd/ifOarnJp2PzvGlZXuZwObd/ZltDbxtqW0JsfbXE0rf5MWJmwGskEn2NgOGNWR9vQweQuURy0osSJbRPx8qUvfalabRtXa7SVj3pFGVZ3cCY7P3WcpC13rwJhyBCTI6z4rh03DPJZyRxJrDqSr1+YUXc9xzR0yTeFY7d7hxANu+lOPOUrF5OCJxNW3fNZeTmp7nnnnVeST1dddVW2rc0RVrQNtDGQVuxW4Bi2WSGs2EVBuriAeFLLbNx6tWk7oo5t/EdyAf/IR8IqvaeK72CX9olfjC+Gpe+49FW5I9xMWG0krGJ+6RmjbzyWmLyOffioxiEaS0BYEYd2d2Fs1uIb6iZ6cR8pdzA27bDSTiz833333dVPCzF4nxsLSQ++a3wVj8jlfTR+R+zFZ8ad+OVX18dG/36ejH42Ylvll7quE6/2HBtN/kxanYikVNqfx2+ud5NR70ZdDm3GHTHONv7j2MLjlNnETcTEPD83kTmzki9NadQiOuxhufSyu17jAk4EkJ+ucpKPbtewusrFuAd9ti2htz20LaE3PwbF07T5N2FlwqrqBEYBXo45UwfD6tdhw4wT2ybihSP2FC8dieJtKy//uHUyMQ6IOYw5UY5nGWJyRhq+r1y5stJzxYoVxbnnnlv9J+/S8NqEmZOpS0PqN6Yp5lvqz/8H7xgwLgiTl19+ebZsISXwY8Jq8PydFkxiwMcIXHefS46wIm3cX0U7gixH7bCjlWd+W265ZYUnycczvnN5Q9uDLARY/M5dOApXBoL4PfesOM8///yesHJ+03cc7UB8GMLTb/6/oR6wU0RtxxVXXNE3n9q0NbRBClOGz66EFeW03377Fdddd13BjmaFKzdd0GHCagOpAvaZdOpHnUyPb1QdqOvDY5896DhE4xMRVhzLqTJjJydHA+q/CKA6wopLj+W3nwuxpHThSo90nES7oLDYpRVlcs8Rv13aolyYfrf4fXHEtuvEhvyetjrB7qp4dxz9FH2MfqyaV13mG7+64z1d5xa/zi1GHnucMp3lthhYcJiDY6GJzJmV/GxKYySnWXSeppm5qfqQE044ofreVS4Nn/9dw+oql9Oh7TvbEnrrmG0JvfnRFkfT6s+ElQmrqhNoA2IIFowM8QiZKMckRh0MjUn81uU5TmzrCCvuVdD2XOLmbi3F1UZefuU2yWhFMvGcddZZVTySrZt06vtmm21WvP/++2Ue3XzzzdWdWMjJT+r2CzP1z/+mNMh/U77Jj93hOgStQE8Nc8rXJ598ssSCCavh8ln5OYkuA20Msbfffnu2jov8oW1N9edOO5FJyOs5Elann356+f6ee+5ZcAdRDI8j35BPyYSlJqx0PxcXyEb9/NxbB7TjJCUYlU+QTlw8q/9vvPFG2ZaAA72L7r333lt+f/3116vv0eA/yA6rGC7P3M+HQVJ928cff1x88YtfrOIxYbWBsKobw6T5yf+mPrzrOERjCRFWxKNd8U899VQ5rmNsQ38EYc73OsLqxhtvLPGEf+4xoR2LP4445Bu/s88+u8ICYUqPtF+MC57oOyOGkEt/Eb8mrBbmT5pfk/K/CdtNOjbJuU5sKP+lqhMYGFW/27rx2NCmcva36anLHqdMT1m5Xk1WWTWRObNSVk1pxFanviO3gPGSSy6pvsexc1e5XJ52DaurXE6Htu9sS+itv7Yl9OZHWxxNqz8TVplJ8LQW5lLozYpqdTBc/J7GefTRR1ffcwbY1H+//00TVGQ5xkbH7KHXW2+9VUAKKdx+8vIX3SYZ0owxh7g4RicajgmjzhATw4eoUh7KbcqrNmHG8HluSgPf++VbGp7/d+sYMMhRxp988knByviYj0ceeWSFAxNW3fI35uekPnMPC0TRAw88kL2jromwIk2XXXZZRVTlCKsDDzyw+n7cccf1YEx5giEYozLy8b4+vi8lYcWKXKWBIw6ln92F+NeRE5999lnBTpiYR+y24z1ti8gAFoiordl///17/POfNojv8a6JaNxsS1gRFgtWmEyy6CHqFUmMeMSdCCvIkeh/Hp779cV1edAk13UcorFEJKxWrVpV9UPggx/H+0mvHGEFkaQjkp955pnKr2RwGWPIz/PPP9/jR3qkhBVyt912W6XPxRdf3CMXw+c54teE1cI2JM2vSfnfhO0mHZvkXCc2lP9S1QlOmHj00UeLtWvXZn8cY6r2RH44Ar2pfP1teuqwysrjlOkrM5Wd3fGWXROZMytl05TG3XbbreojOBqaBe9KN7vy33vvvfI7C+DiXKOrHCeIMHfadNNNq3i6htVVTunr4tqWsLG+2pawMS+6YGkaZUxYmbCqGu42AMZYpUkIExKMnzTce+yxR7F69eqCjkXfuXelTZhNfuIElQvgjz322PKHIQPDp1Z0K870ku46eYUj9+CDD650jTJxVYf0vOGGG6o0pjvNmgwxkj/kkEMqefSGrGg6ikthvvzyy1X6pXd0dcwT8cQ0dMk36Wp3uE6Bc/2FTe4EwSi8fPny0sgsY54w4LweLq8nNf/i3VMcuZXq2Y+w4hgdbX0X2ROJcgxU7KrRN9pk4mFQTrvCLi0Mw/oOQRV1iIQV7SDtdu7HAFFy0pn2L+eXd7vsskvlX3L98kL+7G5SxMUfnPF+5plnFvS/lK92btJ26CjZSCyoraE8aXP4r3YormSMxs22hBWLKxQWJCxlCh4h4FkwwjeOCYxl+Nhjj1UyF110UUmSxu+z/Bz74tx4oi7t/eS6jEM0loiEFfU6Hu1F+TFGkV4RVzIaxNWl55xzTuVXMnIjgbn77rtX/qRHjrDaaaedqnEkBottt922klO4ciN+TVhNT//ZD9sq39TtJ+c6MTkkLu28+om0HP1/eupqv7LyOGV2yrJfWfv7aMu6icyZlbzul8Z43ykLpThqHJnHH3+86j/SU0HIm0HlGH9q0R67sWP+DhqWZLvKSX5Qt9/8WfPyugXwtiWMtv4OWn72P1z+m7AyYdXTcLepULp3R5ORnDsq40GcoObi0TsMG8ccc8yCtLSV5zglpT3K5AxMGIFl4IGgw8Ai2SZDjPx87nOfK+JxORj99C3nKkyltc496aSTqnBiGur8874u33J6+F23xjYa7erKwjusuuXtNGCSo3Oo4xBGhx9+eFVHpXu/QSb+ICpEOOFGworvkEMM9qOf9Jnt8+lOHWQjYZXKxP8sSEh1jt9zz+ndNdyTgz90pR1UeHbz+I9Gv1zbwd1mMe+4mDjnT+/ixcXIRYN/W8IKggMCTWHm3JTE4H611B+YjrrP6nPsi3Pjibp095PrMg7RWCISVsQf+6h169b1lEuOsHrooYfK8mSXX9Nim3hHVlzcIz1yhBX6XHnllRVerr/++h59Yn5F/I5qzBnD93O+XRo2X/phuy78fnKuE71t+jjrROy76srT7xenfi11vsayTvt5/nucMhvlvNS4mvX4+pE5s5D+fmlctmxZEXfjpu0HO6/iYmzlyaByzG8UNouFFQ7uoGFJtquc5Ad1bUvY2I7alrAxLwbF0bT6N2Flwqqn4W4LZMgRjA46Ho+OAPLm6aefLnf3tA2nn7/Y2amzwcVQwqpxjpq44IILao0mdfIxLJ5ffPHFKh+iDB1STsd4gX2cFHIPBOFxTEJOTu+ifFzxru/RVZipzun/SNjFNER/bfMtxu/n4ToGtrljrMMQqLKgHJjE8Z53JqyGy+NJxyj3+0DUMLFPddU3He2Wftd/ju4iDIzF8dhTfd9xxx3Le4Tibiv8cxQgBur0SErJsUMWf/1+UT/p3E8m7soiPgzRyJx33nkL8kH62O2tC+Q7qw1ZHUi7QXvBvRF1q+h4/8QTT1T+keN/zj8TIO2Kjpcaqwy4H4342Mmsd7jcnQXpqB3O6EUbxtF/7LSKfnlmZ87VV19dvPPOO5VMHR5T2Wn/H/viuvFELo1t5OI4os04RGMJ6m+MEyJNfVN6N6eOrgUnHAUI0Uw54p/jmGM46TO7PLXrDgzru/SoGydhoNAOZBbVcPyYZKMb8csOxPjNz73tyCTlRxts5/RtI+c6sbFNH2edYNFCru/IlavfTW5dbVs2HqdMfxm2LWv7G01ZxxOL9tlnn5kcv7RJI2nXIiaNQzW+ZF5bh7dB5DiOlpMpmLPExVMKe5CwJIPbVS6GMciz5t62JdiWMAhuZsGvCSsTVrWdQRuAY8Dg7HiOgIrnz7aRtZ/RDHqcj9OTjwy+MFpyvwflduGFF5aTehNW01OGXerbUUcdVRI17CigzewSRlsZDMrgbN999y3b5jpjb9vwRuWP3VYiuDhHfFThzks4kJRMujjWoU2aMebjH7eN/65+wBo7G9SmNYXz+c9/vsS/jpZr8utvs90munxdvsaAMWAMzBYGPE6ZrfJ0/XR5LgUGmLdyvDnHUXMSCTbFNvEOIsf8o2k+PEhYUbeucjGMts+2JWxS2JYwn22SCSsTVq06hbaNqf3NZ0Picu9W7iasuuXbtOEN0uCuu+4qCZvDDjtsLttcdvBAWHH8GBOHaStD6zsfddXl7HI2BowBY8AYMAaMAWPAGDAGjIFJwYBtCZsUtiXMZ300YWXCyoZDY8AYGBMGTFjNT8e7YsWKkrC5/fbbW+1GmZQB8ij0YFeQjirkCIVRhOkw5qfuuKxd1saAMWAMGAPGgDFgDBgDxoAxMK8YsC3hntKWYlvCfLUBJqzGZKie14bW6Z6vBsbl3VzeK1euLLhU9LnnnrMRf8bbYo4NWLNmTXHLLbeUx/XNU93g7hHSHe/Zmaf0O63N7aDzx/ljDBgDxoAxYAwYA8aAMWAMGAPGQB4DtiXYljCPdcOE1YwbSecR1E5zvpNzvjhfjAFjwBgwBowBY8AYMAaMAWPAGDAGjAFjwBgwBowBY8AYMAYmFQMmrExYeWeHMWAMGAPGgDFgDBgDxoAxYAwYA8aAMWAMGAPGgDFgDBgDxoAxYAwYA2PFgAkrA3CsAJxUJtd6eZWBMWAMGAPGgDFgDBgDxoAxYAwYA8aAMWAMGAPGgDFgDBgDxoAxsHQYMGFlwsqElTFgDBgDxoAxYAwYA8aAMWAMGAPGgDFgDBgDxoAxYAwYA8aAMWAMGANjxYAJKwNwrAA0O7107LTz2nltDBgDxoAxYAwYA8aAMWAMGAPGgDFgDBgDxoAxYAwYA8aAMTCpGDBhZcLKhJUxYAwYA8aAMWAMGAPGgDFgDBgDxoAxYAwYA8aAMWAMGAPGgDFgDBgDY8XA/9t8882LSfntsMMOBb9J0cd6TA42XBYuC2PAGDAGjAFjwBgwBowBY8AYMAaMAWPAGDAGjAFjwBgwBowBY2B2MWDCaoIIO1e02a1oLluXrTFgDBgDxoAxYAwYA8aAMWAMGAPGgDFgDBgDxoAxYAwYA8aAMVCPARNWJqy8o80YMAaMAWPAGDAGjAFjwBgwBowBY8AYMAaMAWPAGDAGjAFjwBgwBoyBsWLAhJUBOFYAmk2uZ5OdPUBK+AAAIABJREFUN84bY8AYMAaMAWPAGDAGjAFjwBgwBowBY8AYMAaMAWPAGDAGjIF5wYAJKxNWJqyMAWPAGDAGjAFjwBgwBowBY8AYMAaMAWPAGDAGjAFjwBgwBowBY8AYGCsGTFgZgGMF4Lwww06nV0EYA8aAMWAMGAPGgDFgDBgDxoAxYAwYA8aAMWAMGAPGgDFgDBgD9RgwYWXCyoSVMWAMGAPGgDFgDBgDxoAxYAwYA8aAMWAMGAPGgDFgDBgDxoAxYAwYA2PFgAkrA3CsADSbXM8mO2+cN8aAMWAMGAPGgDFgDBgDxoAxYAwYA8aAMWAMGAPGgDFgDBgD84IBE1YmrExYGQPGgDFgDBgDxoAxYAwYA8aAMWAMGAPGgDFgDBgDxoAxYAwYA8aAMTBWDJiwMgDHCsB5YYadTq+CMAaMAWPAGDAGjAFjwBgwBowBY8AYMAaMAWPAGDAGjAFjwBgwBuoxYMLKhJUJK2PAGDAGjAFjwBgwBowBY8AYMAaMAWPAGDAGjAFjwBgwBowBY8AYMAbGigETVgbgUADcY489ilNOOaU4//zzi+9+97vFl7/85aHCa2KXCfuggw4qzjnnnOLcc88t49tuu+2y8W2xxRbFN77xjWLnnXfOfo/xfO1rXyv9prp/85vfLA488MDyG2HpVxdnDDM+E+73vve94vTTTy8uvvji4rTTTiv/p/FFmVHo/9WvfrXSWbrn3C233LLKozqZr3/965WfqCfPO+64YxkPbvot/v/KV75S6bP11ls3+o1yfq5fceC8ma68Ofnkk4tLLrmk2GeffeYK/wcffHCZ7h/+8IdzlW7Xz+mqn4tVXnVjiaYxALrk+mvebbvtto31SP146k/vCaNtWnfaaafW/fsuu+xS7LnnnsVWW23VGH7UI6axaZxBXslvv3wjHPwytmubTvtb2rrqOtGb37NUJ2h3VFf7zQtc73px4PxwfhgD84GBOKaZ1TJvm0bsQ8ccc0xpS1y1alVpI4u2qbr86SqXC69rWF3lcjrUvRuFTbAu7PT9DjvsULz44ovF+++/X5xxxhkTNYZevXp18eGHHxbPPfdc33lQmq5B/z/66KPFM888U9huMRntsQkrE1adGqP99tuv+Mc//lH83//9X8/vk08+KehsBm0YmvzTaV111VXFZ5991hMXcf/v//5vccsttywgyk444YTK77777tuoD40yYRGH9Dj22GMr+TSN/H/11VeLW2+9taBhl0zqovell15arF+/PhvWv/71r2LNmjUFHVEqO6z+hPf8889n403T85Of/KSKv0nmnXfeKR566KEFjTfpIEzKHgIzTYv+33///ZU+J554Yq0/+bc7GZ3EYpYDRqtvf/vbRZOhclbi33///Ys//elPxb333ttjSL3iiisK6sbNN99cMPCtSy/y+OMXSfNf/epX5bt+7e4RRxxR+iP+GMfee+9dvn/ggQcKjNPxW92zdGbhQJ2f+H7ZsmXFgw8+WP54jt/87Ho+yxhoGkvQZ65du7a47LLLFpA8TXL/+c9/ygnl9ddfX2DoTvNP/ThtRfz2yiuvVH0w7UH8lnvG2IyOGjOkBFiU+c1vflP5Y3FO/JY+Sz+FG926cQbtm/zRVqZh6v93vvOdclyI33Xr1tX6k3+7S9/+NGHbdaJ3TgWOp6lOMO/BmKS6+umnn7oO2s4wFRgY93zEfdHS90XjyvNDDz20+Pvf/161kyz4HpcuixVv2zR+//vfL956660qL9R3vPTSSwXz3jr9usrlwusaVle5nA5N70ZhE2wKP3770Y9+VJUFfXn8Nu7nOIf5wQ9+sKi6CYcsMh53uh3/5oUJKw8kB66Iy5cvL957772qQYM0SsmkUVVwJj+PPPJIFZcakNSlUd1mm22qtJx00kmVTFOHRyMggwwGFzUKsXNI44r/Ia5YVSw5uawqgdyJfuueMSqlK4aH1R89/va3v7WKnx1f0ruNDOXNLjfJsLtOacMgr/fRpWORHwYh3mE1PwPziIP0WXiDLEm/LcX/pYqfdux3v/tdSVhFgpg0QpRTb/hdcMEFtfnALiX523777St/tFv9ZInn6KOPruRj3rL4QOHm2rLoV8/SmR2jetfPhdwiniuvvLK1TL8w/X062pGlqmeTiIe2Y4k//OEPPaRVWzlWQqaEv/KbMUjMk2ggueeee3q+RX96vvDCC6t+m/47R47hlx1VcWHOU0891Ri29NOYIOem4wxI+n/+85+VPoxDpadcFv9EY/mPf/zjBX7k1+742o622Had6CWvpqFOMPdL67Pr2vjqmvO+fd6rXxrXfMRl1b6spjWvmAtefvnlBYuOYjvJKTzTmqZU70HSyDhONriYH3pmQXRukWNXuVRX/ncNq6tcTod+70ZhE+wXh77vuuuuxQcffFBilAWxej8J7rXXXlvqxUaDdN4zav2EwVHZs0et37yFZ8LKhNXAjRGDOVVkdhBhSIBwYVWtOmE6mVFUJladKK633367YKKL0YQ4McBGA0w0BA/buMcJNeQMq3b5QbzccMMNxf/8z/9Uel100UUL0vrLX/6y+s4KQxpZVmJwRA16X3fddT0kHwOYmF/D6k9YGnzjko91v7hbQzIYwTCQ86NThpRiJbjKAne33XYrdWZwEo1E5F1MC7tGYjmx6iZ+9/PsD9LryhjyEiylhtU6/6N+v1TxMxmBrCGd6TFVIn9EGtXVj2knrL71rW9VxNgBBxzgNmCOxh5LVc9G3T6MIrw4loC0Vb/KOIDxU1z8w3/FGeXYXSQ5jk1hhxG7LtQf33bbbZUc8urH03ZV7yXXj6B+7bXXqjiQqSOscjtmND5QeqIrPQYZZyB//PHHV/q88MILBWOPGC5jNaWNhU7xm58nZ5wRse06saFcZqFOcBxozvjoujc5dc9lUV8W8zxOMS7qcTGqvGEHH4t5NEaJ7qwQVoOm8dlnn63y48Ybbyx23333gvlhtDPecccdC8ZyXeVyZdk1rK5yOR36vRuFTbBfHPE7Y/24MDZ+G/czNpSm0x5GpZ/qpwmrxW8b25SZCas5Mhq1AUQ/P+yMgXmnIt99990LOpHf/va3VefD/U/9wuv3/eqrr67CgzhJ/WMU0e6uaJwZtnGPE2qIqjReOlVNzB5++OGe76xOkE7k01lnndXzXWHFI24IizPf9W1Y/QlHE+CYLwq/zu0n89Of/rQqj3jsD3kkspJV0LEz4fgwNfxNR/nU6TQr7xkAHHfccQVlq2MqIQs5Ei89SpHvvM/dBcIggm+5VUfKK+5uY1s3RtFYFvqOq3BkWMR4iQz3LEFAQzAQT8RllMd/Tvfop+6Zo6aQ1TEAEJ7855eTaZOeKMfKG9LO/XqHHHLIAkProPHHsLs8/+xnP6vdXZQSVrSruaNGp52wIt9uuummMh/iDs0u+TlvMhjmaWPZDcvCg7o6rXyR/1NPPbWUSw378oe71157lfVOx1FSB6k3ECP0ZdFv+jxp9SzVbxL+9xtLkP8ff/xx2UfGnUn95Ji0aeEMfW5Ma10/rvfqj9OFMjGMI488suq35b+OsGK3lvzI5ZjDGF58lh51Y5O6cQZhsCNdccQjSTnO9N133y2/MZ5K+9QYv5/HOwHth23XiYXlMw114sknnyzrH3OBWE9d3xaW5yzmicYdHqfMR3nPIoYXM03cB6SxC4t14uk0s0JYDZJG5jTKD8aE8XoM7BNalEV/EufEXeVyZds1rK5yOR3avBuFTZB4sClxqgoL/LFHYcvMxS/7TzrXHGa+SDzML5mXHnXUUdXi3bq4cnoxByGMVO9R6EW/xVHpIuqEzSbCqp9tinkI+rKYJ00Pecs3fmk+p37930cCLgCQQdE80KJh4e4qDCRxR5PyDXJGlZwdRXrf1b3rrruq8Oou7+U+JMif2OEP27j3m1CTnjfffLPU7fHHH+9JZxyEcAxYU9q5f0v5FY24w+pPnP2MQjm9+slQBtIX43MMg11k+qZjv8CLiD123cVBR5Sd5WcMaaz2Zqed8gcXolP3fkBwKg+4U0j+MBrrvVzJgD+9k4t/BsKSxyX/H3vssQVHV15zzTWlP8qFo3eijLaE8w4jhMKPLpdR8r3LbspYr2O8PMcdRoOkB93AF0bQNEzynuPrNCBuG39Mb9dnBogYdNlBlbu8U4TVH//4x2oHEiRvGt8sEFZnnnlmmcZ0R0iaVv/f0A9DHLO6MO7CAdtM4G6//fYFR8niH2zrXkbVA/7znu8xbxn8yw/tiggQvcNlN7DqjWQnsZ5Jt0lz24wl1B7RVquM2six21tlFXdL1fXjei8ZFgzkFkWQh9x1J39yc4QVWFAfzwrZp59+upR7/fXXe7AWy0V61BFWTeOM2DeBayaMhB3HUiwQiPH5uXlcv9T50wbbrhO9ZTbpdSLO/Rj/UwfVbiw1vhxfL3YWOz88Tlna/F7s8nT4i1OeInOwlVBnsJGpjYz2q2nO/0HSCHGh9OdsHRyRr+/RLtBVLpevXcPqKpfToc27UdgEsZWmc0PylwXDkVBh4YHyPV5T0HW+SPqwi2qBssJGF2wC+t/migEtgEdW+TaMXthd41Hj6ELY8bSGHGHV1jb1xhtvlOnjOOd000Wcs/j48v5trndYeYdVVelV+YdxYwVs2gHSNo7YYT366KMFxv82ssM27v0m1KwOUCPL8X9RJ4gIfdtnn316vkV/PLPSQX7jBenD6k/Y/YxCqS5tZDAWSV+MZTEMOg11SBAEpP3Pf/5z5T9HcEb5WXxmR+ITTzxR5YHyLnUxQCv95Ju+c9SS3svFgMx38lrvcNnR+OGHH1ayCkMuF93HVRwivvRdLuQZOycgUHhHR5vusoo4oM5HPdo8gx0ZORUv//npzrlB00O88WjKjz76qFpxrzgYNOGvTfxt0tHGD+nRcX+spEllRFjR1p133nmV33QAPwuE1WGHHValDwyleeH/GwdtkEQpkSwcy+WYVuUZ/nM7XeQXl++RfIoD/egvfY6LKYhvEuuZ8mHS3H5jCfRl8YfyXKv72sjF8VYcG9X1/XqvlavEmSPRIb+0S1y7lvALXtL8jRO7ww8/vGDXk9ISjQxRTnrUEVaxf0nHGYQTFwXdeeed5SIHxfnyyy9XpF+M088b25Zx50UbbLtO9JbXJNcJxotaVAFRzW5dE1a95TfuOrdY8XucMh/lvFj4madwacPZua40zyJhNUgauR9J4zYt1FLe4DJf1vd413pXuRi2nruG1VVO8Q7qDmsTTI/tZqGxxvjkMf9VBixiU75zj6107Tpf5OQehdfk5oghxS33F7/4RRkWJ33pXVe9OIUH+1aTTnxL9RrENhXrOPMebILojS1E8bIoPM7LlS67vX2rCSsTVlWlH7ZycFSRKj/G8WHDQ55tnhieVbFpYCGEMO7CVtdV8mEb9zihZiU7O7hWr15dXpYJsQTBgE7czZTu/JIxhmN+mo5iIn10ENp5gxFQeTas/oQjPdCR4/tyP1ZcKM4okzMkoWs0kJEfUZbnmG865oh8gmxM/c7Df+4kEXYpDwx4TOZZTRXv9RqWsKJsRBYSH2XDyne2TUejN0d2Kt8jYUXnz4CQ86d1pxn3tUn3tKyjwZCOV2EO6tadGd8lPbQV0pc6us0225R6sXVfq4q49yTqWBd/9DPsMwMW3V+lY9dimJGw4jt1DP/33XdfWR7yOwuEFcSnyLuDDjqopyyUTrsbBmlxsca6devKowDBNEcWgGNhncUT5Bl3Keod32lrqEe4cddlvHMxHeiDPcqIxSYcF6fwYn8+qfVsUnET+0TaolRPykh3Rb3yyivV935yEOFaoAABFcNV35/243oPGcAElfLN3fUUyz7ex5kjrLTTlv6H8RjGa42P0l3Y0lF6pPrxnfzoN85gXPXXv/61wmccazAOVTx2eyd8k5If/bDtOtFbbpNeJ7QbjvaE/gmcmbDqLcNJqXuj1sPjlPko51HjxuFtPpM7rNJyjQb7dBeZFtjVndIS5ye//vWvq3FdV7lUN/53DaurXE6HNu+GtQly1QD9M4uCVQ7YerimQ/M8jghEl7aEVZv5IvbRuDgZWxLvsDVpt5TiT4mhXL60Iaza6AW2tMiG+ImbuQuEa7yKRt+kC2OxQW1tLLpTGrEJEgZzPd5hm9K1HIrDbr5PNWFlwqrqBIapJBjG169fX1VK7o0ZJrwoy6pdGWZU6eXScNCRpTtAhm3c44RaceXc3DZOGYKikS+mJ32W8SbeQzGs/sShcHN66x0EYNRHMujCygp+GDiZkMrojyzPECJRVs/xskz80llxNKC+z5PLUXzKr/RODS4WVUc+LGEVz1NO7w6hc5SBm/JV/kfCSgMVfcNl0CIsp8cC6tgnjgeNMoM+1xFGXdITCbY1a9b06AX+2EmQkiR18Q+ajib/rC6CpKEO5fxFworvHAn54IMPljIcHSHSexYIKwzaIqxk2Mrlid9tXuaT2o54XAN5wy5M2mDaDwbAvCNf8c8gPB0A81+Dc/wpf+OEkP4qXQACoSAdJDOp9Uz6TZobxxIpYQUxGO96iUcIRzkmleqPmeSpPads+KVHiKofTwkhvb/++usLTfyQj/0z7b4mZOwOZoyjeFLCClzqG5M85b12VoNR+h+9lys9hhlnkJdaICUdmKgqDrv5Sd8k5EvEtuvEhnKa1jpBP676x+I+4cuE1eTWP5XRKFyNO2jrPU6ZjzIfBW4chgkr9XlxsXaKC81bIIj0rauc5KPbNayucjHuQZ6HtQnqVAwWt8VxPONzFj1iH9H7NoRV2/kiu5g0Psjdmcsx4vo+CsKqrV4sbFO8cSG3ykSEJH6iXl1sUyw0ffXVV8v4mLPHReQcoak47Tb3nyasTFgNXVlgy1UZqdxcDjzqiscF4xw98+yzzy4wUhAn54RGI92wjXucUBM+bDi/9KxTvqUEge4BwajUJh/EtLPjRv6H1Z9w1KGiI8f65H4xzlQGudyPDg+jpXRNXVYoRIJRBtXU3zz8//e//13mIR1ULr3sPCOPhyWs4rFM5Df4ib+4m0u7fERY0YHmjIroKz/xWEBWxggXqaE0l8amd3WEUZf0cIyV9MLFEMyusfRyzqhPXfzRz7DP3O3ApD4ao2OYKWHFt1NOOaUidnSU5iwQVqRNd3Wluztjnvh58+rC4ThRa8oXLRipa2s0SMafwomEFTjUe7lxd43eTWo9k36T5qZjCcZK/OKxfLRX3EkYFzWkcrFti8/sxEzbb/X9TYQV/bR2QkWyKca7cuXKRsIqrpCMxAPtrnQkjLRMpJ/85Nx+4wzCZKIpWXDNODGNy/+bJ4HjyJ+IMcrPdaJ3vC5Mp+6k1QnaHc39GOvGY0lNWE1evVuMuq5+zOOU+SjvxcDQvIbZtPtoVvKkKY3aJd+0uBsinH4wzmu6yuXytGtYXeVyOrR5N6xNMO6kwo7J3I6dVrIHRR3aEFZt54vYRzWOyV0TEwmgSAxFfeKzFtrVHQnYVi+uX5BeuatbyBt9j3p1sU2hP/YbzbcULguTY9r83NyHmrAyYTVUhcHgJeaeSpi7b2DUlZA46QSJKx4FE1eOD9u4xwl1NMSQFiZp7EjR7hPSHf1o9TNEAA1/U/rpLNSIQcbJ77D6E46MQqnRSnHkXMmQJkhAfpHs4H16BGIuHG2BZQdXakzL+Z/Fd9Gw+/Of/7wq25hWdtCQp8MSVnGVCuE1/XRHlMiouu346IlfhaVjAeNxgHFlfkxX2+c6wqhLeogzGlClNy64lv5Rt7r4o59hn9kZQdt0zTXXZDGQI6xoN7irDDkGNRzDNiuE1W233VamK55JPmwez5p8bDvakMLRf11bE+sG/smzSFgxEE/zkYG66lH8FsPS93HXs6jfJD3HsUTMq/iM0TdtS6Mcq0zVH2sCj3zdeEv9eNr36z07rMgj7e7C2Kx+WosoWHjDeetNO6y0Ewtd7r333uqnMHif6kC80oPvSleXcQZHeBAGvzb1ZJJwMc+6RGyr/FLXdaLb2Hsp60Qkpbg8PWI6fovv/dxslJmm/Injjjbtb/Tvccrs4GCaMDtJujaROZOk5zC6NKVRi+ggvXNxcIqPxgUQFfLTVU7y0e0aVle5GPcgz8PaBFm4m1twz+JydkZzsov0aUNYtZ0v3nHHHWUZsuhZ4UeXYwlVxpEYin7icz/Cqq1eIvCwveXstHEcFfXqapsiDbK5Kb0777xzNk9iev28sZ80YWXCqnOFwcChI8+ogKycT48UWuzKBjMuwgdDjuJn9b4aBSbHdXpwlKD8RYNynFBHMiqGEy8xxCitb/FIPC6N1Htc8gySSsYhjihT/OSf/A6rP+HIKJQzGCme1K2TiQaoNoZmNcyQdmkc8/Kf1aYqWy7ozKVbxF4dYZU7qg9jI+FiLFSYCof3Tz31VPH444/3/LQKlvrKynrkVEZNhBX+hAkdC7h27doyfu4uUfxd3TrCqEt6pAPHkTKoyA3OUgNvXfwKaxQuAyiIpzRuhZ0jrPjG5J7dE8gyuFqxYkX5zP/tt9++ynt2R/AuDugVdnRPPvnk0l+6qme//farwhWREeVyz9L54osvrvTI+cu94yxt9OWoxNx3v9u83CmituPKK6/sm08sIpD/urYmXhKsRQddCSvKaNLq2aTiJo4lWIXO5Ee/U089tWdneExDlItjkHiUBXdf6RLfKKs2O+379V6EFUeBCDfs6oQ0038ZIOsIK45qlt9+LpO/NvoNOs6I+F2Mnf1RZz9vnDgOmxcR264TG/JVdTOts5NaJ5jDxAWD9FP0Mfqxal7tAt/41R0jPiyeLD+6ujlIXrKjNZZxP1mPU8ZTTv3Kxd/HUy5NZM6slElTGuPCt2233bZnjEj644JZ5q/Kk65yko9u17C6ysW4B3kehU0QuwH2CGxE2ObUduOyaI2Fseg0SsIq3ocr21NM94EHHljpEYmh6Cc+j4qwkh2NtOd2maGr8ifqNYxtKt71SdjYdGLa/NzcDpuwMmHVqcJwrwrGVFVoSJqc4WSYCgj5xKXdrGRoIkm4Z0F6aELE0Tp6h2G+To/YCejoLfzGCXU0FsVw4uXzMQ46BMWN7pKhE9B5vLgcYcjkVH5jGofVnzjrJsDSJ+fWycROBaKEM1lz8nonMmSeCSvyQivQUyOE8kl3QdURVrGjlIxWxUfC6vTTT69wlNveLNnoqoz6EVaQsWCUFTLUBeE1t5Ilht/muY4w6pKeXHzUIwwlOqISPMbBSV38ubC6vsPgC0HDSqNcGCJ/uLw6/c7Rm8hKXs+RsDr77LPL7xj+RNin4fCfu/6QZ+dW/L7UhJXu52IiE/Xwc+9gTTtOuA8olzcYf+LdjSJo6Ytz/sl36m68dy4a/HP1mfZH9T0Xpt5NQj2TLpPmthlL5HRuklMfQNmw4zWVr+vH9V6EFXKQXoTDAgQW7fBMf8TRr3yvI6xuvfXWChu0K/Qn8ccRh8JOqqP0SPvFQccZEb8mrHrbjxQTk/S/CdtNejbJuU5sKP+lqhMYGFW/27p1c6mmMve3ya7XHqdMdvm4/kxu+TSRObNSbk1pxOamvoNxZprmSHbEvqOrXBo+/7uG1VUup0Obd6OwCcZ4WHDCvVWM+1UGkHD4GSVhhQ1D4bPrOurAczzWO2fvSv2PirBiR7j0ithSfMccc0z1PerV1TZ1/PHHV+EpXk6XYIeZ4rTb3FabsDJh1amycLm1Kt3DDz9c7RgadYXDuEY8GNWZiKXh806kAHdBxe8ymLDzip1M8RvPrPpdt25dlQ4ZaPjWNDFWOHHFeuxsCTeuPIyNHceSKd+iy3ms6f0Lw+iPjnVGIemfc5tk4uqA9N6uNCyRIfNOWImQ5GhEVsbHfGL3lDAQCatocHjkkUd6ZMCWjoSKhBWkg8LCkBjj4ZnBFXcoQY7om8qoH2HFtmX0I3wZNylXkcMKr4srwohwo3yX9Bx66KGlwZVBbtpWRONqPHqrLv6oy7DPDHww6EIk5LaeNxFWxM0gUkSV3EhYkW69r9u1dMABB5THf+EvPbpnKQkr2jjpyhGHw+btLMvryAmIYnbCxLQedthh1V2OIgMgLKmjn376aQEmon/+857v+NO32Na0JawmtZ4pTZPmthlL5HRukos7y1kZGdsDwqrrx/U+ElZakKD+A5fj/aRTjrBiwYr6oboLs5kQy8+LL75YhdekH98GGWdE/Jqwap7sqTwnwW3CdpN+TXKuExvKf6nqBAsU2XX/l7/8JfvT4jzaE/xw5HluhXVTefvb5Ndpj1Mmv4xcjyazjJrInFkps6Y0cgKRxp0Y73XyEGnH1oFdjO/YG+KcvqscJ4gwd2LBvfK3a1hd5RRvF3cYmyB2ERakUR4xbvJZZXDnnXeW30ZJWBG+5p7MZVlgi+0Iu1K83wodoq006hifR0VYxcXX6cI5cBivuol6dbFNcdoSdjbSyAIPTqZRntedvBPT7OcN7bcJKxNWPY1Xm4qBgVWVDZedQRhK0180DLcJN+cnrrCgsSaufffdt9hzzz0LdkfJgI4eGOBjGHHrJoYTGgmMbRhvMdpCcCkdqUElToxpICEX+PH+3HPPLSASJIsbLxtGh9gg0Uhz3B/MfDwCMMpzAWDUnedh9EdeximOg0vLJv6PuksmbcAJjzNwGTigNwOJpvNXRYbMO2F1xhlnVDh5++23y+3YRxxxRLkqXsY88jMSVuQ1gzfe09GDAwZZDDRUPnyLhBUDjIhnCBqIEkgBLteEMEMGLBA+P5VRP8IKv5AMyOsXjd4Kr4vL1nSFeemll5ZHABBOl/TEOgeJvnz58tKQS73VYIFdKFHPuvijn2Gf491TuTaxH2HF4E7H6InsiQZqBvIYmPWNto14GJQzQGeFE6vP9Z0BV0xTJKzAGTtHc79IqEtndm3l/PKONjrGw3O/vEj9z/P/2Adxxjt9BP0XA34t0qDu0J+RT5FY4P4hCCgujsXlv+oc5ejnAAAKnklEQVRZXFwRjZttCatJrWeTipVYjrmVfHV695OLi4Y4FjSGo34i7cf1PhJW1Ou4wAac0EcpvIgrGQ3i6tLczlDJxoUCTPD1Xnqk+vF9kHFGxK8Jq8k0yqnMo9sP29FvfO4n5zrRey/hOOsE4zn1ObEM/Tw99bRNWcU66XHKbJVtm/K3n+5l3kTmzEq+9ktjPPKWeSxHjSMT5+Y5o/6gcow/ZQdhPhzzd9CwJNtVTvKDul1tghAwtM30x9jksKNiG+CUJ90xxTfsVeg0SsKK8IhPY4EmNxJDdXkzKsKKPJGdDZ0g67CVsOuMeUnUM+rVxTYFrhUe2OYkHBbw6F26ILUu7fP+3oSVCauehrtfhcB4qkrWz00JpH5h577Dzkemuy5OdkrQ+MYwaJAgiupk9B7ZlHyJg3D5y7k0/hBRMV6eMRZHY01OVu8gGnJHeQ2jPzrIKKR46lw6E+kvmZwhCT/XXnttlZ/cqyO51BUZMu+EFfnSBgcpYUUHWVdeeh8JK+IB/yJm5Ce6lEU0RKqM2hBWEJwxLEigtMy7/IfwiOHyjFG+S3owvGpQloap/6lxtSn+LunJybAbgd1VEEZHH330gnwT+ZPqFsNiEC/CCTcSVviDHEpJreifZ46Ei+Wv8CNhlcrE/1E/6Ry/555pvxUPLoZu/KFrrs2Lfv28eRGNfsJwdG+77bae/NVgPvqJz3yP+RoN/m0Jq0mtZzFdk/QcxxKjJKyYcIpoom2H6FG66/pxvY+EFTKxj4qLGviWI6y0YIfFOOiheFM33pEV7wiVHsOOMyJ+x2mcT9Pt/81GPNeJDYt/ZrlOxL7L9aG5Pkx7/sSyjuMNPXucMtvlP+34HZf+/ciccek1ynj7pZEF6HE3rtoMuZAKcVG1dBtUjvmNwmSxsMLBHTQsyXaVk/yg7jA2wXQ3k/JCLjt/tCh11IQV6WR8vn79+qoMiJerGjghRERiJIbq8kZzXBbNy0+cB7SdxyILialdfMoHuZpb8T/VaxBbG3cDK8zf//73lc7YXZRuNmOkNh2lze7GvtOElQmrqgK1qRg0DBhHVAGb3NQ41ib8nB8aae5diTtSFC+NDUfI1J0DCnGEcfX1119foDOGeo4z0AX0Me7YySouuR999FHJjt94443ljoEolz6nO7kURnQhHnI6EFZX/ZGNZ9PG+NJndqpJb8mQL3oXXQYOKgfyvu7eMl1I+e6772bDiWHO+jP4ZQU8hkDlPYY+JnHxzpA0H8hDdmUhg39cDP0c7cdzalhEnk6Q+hB3VOD3scceK3ccxThURgwI4/vcM2kgHH4MOurKPSfb9I72hDOMwYnumYpHJw6SHuLhTh9Wsygs8g0yEFI6R7L1i79J90G+cXwoRM2aNWsW5DU74PjGzs2mMBnY4Q8jb669YxBFPHG3Ff5ZTQbRLCIwjYOjlPDX7xf1k879ZDQAVpzgHZmLLrqoMa3yb3fzckDPakN2W6od0LECufxhB9TatWsr/8jxn/epf+4hUX8eLzWWv1WrVpV1nvqkd7iTWs+ijpPyHMcSTHDb6tVGLh5LHAmbun5c77nXL+oRj8fQEZP6TrtJuw9OuP8Popn2mnePP/54TziSkcv4RYsowLDeS49hxxkRv7ld6orP7sZJ3yTkRRts5/RsI+c6sbFNH2edYIELbUTad+TK1e8mq352KQ/6DY9Tpr8cu5S9ZbqVO3My2kh+uWsrZiFf26SRtGsRk/IDF7tFuhA95skgchxHi62N/ig9kYAwBwmrqw5RruvzMDZByBPdOai5JEeKs7soEibEgZ2TMogEUBxvDzJfjGllrsFOJk4Awp4YyabcHDXK8sw8B73iQuth9GIRLzYVCCrlCVhcsWJFZUdiHpzq0dY29fLLL5f6QsqmC3iZhwnvuTjSOOf9vwkrE1YLKuIkVwo6LyatNDK547WadIcUYsUvxyQ1dYJNYXT9xhFZ6H3kkUeWLv+1UoAGK92inItnnPrn9PG7wQep4A6jJQQQ+ccllJR/usMq5i13qzHYolOO7/s9Y1QmPsXVz3/Td0gkdaxx5yS6YSAa5AdRxq6jGB8renjH4CW+j8+Dpoe0s/q/TfrbxB91GfQZoy9EDfUco++g8oP4x6BM2hmA77333tl7swYJb1R+GayJ4GIwOKpw5yUcSEragbZ3x9FedGk3Bs3PSapng+pu/4P3Yc4z55kxYAwYA8ZADgMepxgXOVz4nXHRhAHmrRxvjm0PMgMbWZN/fRtEjnl+02LbQcJS/Lhd5WIYXZ672gSxs2AbYX7YJd5BZIjnvvvuK39xUZ3CYFG/bEvYSPV+qV3sRORHSiq10WNQ21SbMO1nYXtpwsqE1dgaiHmvkHSerGx44oknCs7CHZSQmPf8m4X0tyGsxplOBjYcY8cOJQYV7NZYtmxZ1WawUkaDjUHcPfbYowpjnOlbqrgh49gODmEzzkHZUqU3Fw9Hi5H+m266aWJItJyefrdwoOg8cZ4YA8aAMWAMGAPGgDFgDBgDxoAxYAz0wwB2Tu3qwkbE/J+rAdi5xQJenfChExz6hefv84s5E1YmrObKcOzGbn4bu0ks+0knrOJAg8FGevkp27tffPHFgX7PP/987RGYk1hGo9KJ3Z0QNlxyuti7rEal86jCYVeQjioc5B6fUcXvcNzuGwPGgDFgDBgDxoAxYAwYA8aAMWAMGAOLjwEIKt3XlFvYDFl16qmn2hZtPqIRAyasDJBGgLgxX/zG3Hk8v3lMJ80dUi+88MJE1kPuwuLOMs5+5i44zjY2XrvhlWMDuPj01ltvndnzyuuwwVGopLvNGdV1Yfh9N9w535xvxoAxYAwYA8aAMWAMGAPGgDFgDBgDS4kBjnvkrqg333yzPJUHkuq1114ruMd2+fLltiuZi+iLARNWBklfkCxlo+a43IkaA5ODAc71NUk1OeXhuuGyMAaMAWPAGDAGjAFjwBgwBowBY8AYMAaMgWnBANefNN0lNi3psJ5LW+dMWJmwMmFlDBgDxoAxYAwYA8aAMWAMGAPGgDFgDBgDxoAxYAwYA8aAMWAMGAPGwFgx8P822WSTYlJ+3HPBb1L0sR6Tgw2XhcvCGDAGjAFjwBgwBowBY8AYMAaMAWPAGDAGjAFjwBgwBowBY8AYmF0MmLCaIMLOFW12K5rL1mVrDBgDxoAxYAwYA8aAMWAMGAPGgDFgDBgDxoAxYAwYA8aAMWAM1GPAhJUJK+9oMwaMAWPAGDAGjAFjwBgwBowBY8AYMAaMAWPAGDAGjAFjwBgwBowBY2CsGDBhZQCOFYBmk+vZZOeN88YYMAaMAWPAGDAGjAFjwBgwBowBY8AYMAaMAWPAGDAGjAFjYF4wYMLKhJUJK2PAGDAGjAFjwBgwBowBY8AYMAaMAWPAGDAGjAFjwBgwBowBY8AYMAbGigETVgbgWAE4L8yw0+lVEMaAMWAMGAPGgDFgDBgDxoAxYAwYA8aAMWAMGAPGgDFgDBgDxkA9BkxYmbAyYWUMGAPGgDFgDBgDxoAxYAwYA8aAMWAMGAPGgDFgDBgDxoAxYAwYA8bAWDFgwsoAHCsAzSbXs8nOG+eNMWAMGAPGgDFgDBgDxoAxYAwYA8aAMWAMGAPGgDFgDBgDxsC8YOD/A3fpcsXZo6x5AAAAAElFTkSuQmCC;" vertex="1" parent="1">
          <mxGeometry x="140" y="200" width="932.88" height="130" as="geometry" />
        </mxCell>
        <mxCell id="H2iFhttYUmXcO81ItlxO-2" value="&lt;font style=&quot;font-size: 18px&quot;&gt;-- from 后面子查询后会生成一个衍生表&lt;br&gt;EXPLAIN select (select 1 from query_test where id=1) from (select * from query_test as q where id=1) der;&lt;/font&gt;" style="text;whiteSpace=wrap;html=1;" vertex="1" parent="1">
          <mxGeometry x="140" y="100" width="870" height="60" as="geometry" />
        </mxCell>
        <mxCell id="H2iFhttYUmXcO81ItlxO-4" style="edgeStyle=orthogonalEdgeStyle;rounded=0;orthogonalLoop=1;jettySize=auto;html=1;entryX=0;entryY=0.5;entryDx=0;entryDy=0;" edge="1" parent="1" source="H2iFhttYUmXcO81ItlxO-3" target="H2iFhttYUmXcO81ItlxO-2">
          <mxGeometry relative="1" as="geometry">
            <mxPoint x="60" y="170" as="targetPoint" />
            <Array as="points">
              <mxPoint x="70" y="273" />
              <mxPoint x="70" y="130" />
            </Array>
          </mxGeometry>
        </mxCell>
        <mxCell id="H2iFhttYUmXcO81ItlxO-3" value="" style="verticalLabelPosition=bottom;verticalAlign=top;html=1;shape=mxgraph.basic.star" vertex="1" parent="1">
          <mxGeometry x="180" y="260" width="30" height="25" as="geometry" />
        </mxCell>
        <mxCell id="H2iFhttYUmXcO81ItlxO-5" value="" style="verticalLabelPosition=bottom;verticalAlign=top;html=1;shape=mxgraph.basic.star" vertex="1" parent="1">
          <mxGeometry x="180" y="305" width="30" height="25" as="geometry" />
        </mxCell>
      </root>
    </mxGraphModel>
  </diagram>
</mxfile>
